<?xml version="1.0" encoding="UTF-8" standalone="no"?>
<!-- Created with Inkscape (http://www.inkscape.org/) -->

<svg
   xmlns:dc="http://purl.org/dc/elements/1.1/"
   xmlns:cc="http://creativecommons.org/ns#"
   xmlns:rdf="http://www.w3.org/1999/02/22-rdf-syntax-ns#"
   xmlns:svg="http://www.w3.org/2000/svg"
   xmlns="http://www.w3.org/2000/svg"
   xmlns:sodipodi="http://sodipodi.sourceforge.net/DTD/sodipodi-0.dtd"
   xmlns:inkscape="http://www.inkscape.org/namespaces/inkscape"
   width="301.4834"
   height="417.52789"
   id="region"
   version="1.1"
   inkscape:version="0.48.4 r9939"
   sodipodi:docname="centre.svg">
  <defs
     id="defs3988">
    <inkscape:perspective
       sodipodi:type="inkscape:persp3d"
       inkscape:vp_x="0 : 526.18109 : 1"
       inkscape:vp_y="0 : 1000 : 0"
       inkscape:vp_z="744.09448 : 526.18109 : 1"
       inkscape:persp3d-origin="372.04724 : 350.78739 : 1"
       id="perspective3994" />
    <inkscape:perspective
       id="perspective3981"
       inkscape:persp3d-origin="0.5 : 0.33333333 : 1"
       inkscape:vp_z="1 : 0.5 : 1"
       inkscape:vp_y="0 : 1000 : 0"
       inkscape:vp_x="0 : 0.5 : 1"
       sodipodi:type="inkscape:persp3d" />
  </defs>
  <sodipodi:namedview
     id="base"
     pagecolor="#ffffff"
     bordercolor="#666666"
     borderopacity="1.0"
     inkscape:pageopacity="0.0"
     inkscape:pageshadow="2"
     inkscape:zoom="0.98994949"
     inkscape:cx="-246.18087"
     inkscape:cy="187.6648"
     inkscape:document-units="px"
     inkscape:current-layer="layer1"
     showgrid="false"
     inkscape:window-width="1855"
     inkscape:window-height="1056"
     inkscape:window-x="65"
     inkscape:window-y="24"
     inkscape:window-maximized="1" />
  <metadata
     id="metadata3991">
    <rdf:RDF>
      <cc:Work
         rdf:about="">
        <dc:format>image/svg+xml</dc:format>
        <dc:type
           rdf:resource="http://purl.org/dc/dcmitype/StillImage" />
        <dc:title />
      </cc:Work>
    </rdf:RDF>
  </metadata>
  <g
     inkscape:groupmode="layer"
     id="layer2"
     inkscape:label="Layer"
     sodipodi:insensitive="true"
     style="display:inline">
    <a
       style="fill:#ffffff;fill-opacity:1;display:inline"
       id="a3668"
       transform="matrix(1.1251764,0,0,1.1251764,-218.27843,-428.1826)">
      <path
         id="path3167"
         d="m 397.40104,601.8347 c -4.61094,-5.69643 -9.83887,-12.44643 -11.61761,-15 -2.45048,-3.51792 -4.33545,-4.67019 -7.77966,-4.75564 -2.50007,-0.062 -3.74201,-0.43703 -2.75987,-0.83333 0.98215,-0.39631 1.78572,-1.64718 1.78572,-2.77972 0,-1.13255 1.60714,-2.67021 3.57143,-3.41703 3.61561,-1.37465 4.76091,-4.81052 2.14285,-6.42857 -0.78571,-0.4856 -1.43841,-1.96996 -1.45044,-3.29859 -0.0432,-4.77427 -2.06576,-6.27648 -6.02294,-4.47347 -3.12026,1.42169 -4.28946,1.18189 -8.1485,-1.67123 -4.12544,-3.05006 -4.47003,-3.9189 -4.08468,-10.29903 l 0.42085,-6.96795 10.5466,-4.42391 10.5466,-4.42391 2.31054,2.96042 c 1.2708,1.62823 4.06258,5.93237 6.20395,9.56476 3.38571,5.74315 4.51119,6.60434 8.63113,6.60434 3.69826,0 6.06568,1.35308 10.79029,6.16711 l 6.05256,6.16711 -2.83468,11.86834 c -1.94087,8.12611 -3.75624,12.51383 -5.75741,13.9155 -2.63783,1.8476 -2.83289,3.01395 -2.00102,11.96456 0.62406,6.71464 0.42376,9.91738 -0.62022,9.91738 -0.84808,0 -5.31454,-4.66071 -9.92549,-10.35714 l 0,0 z"
         style="fill:#ffffff;fill-opacity:1;stroke:#000000;stroke-opacity:1"
         inkscape:connector-curvature="0" />
    </a>
    <a
       style="fill:#ffffff;fill-opacity:1;display:inline"
       id="a3665"
       transform="matrix(1.1251764,0,0,1.1251764,-218.27843,-428.1826)">
      <path
         id="path3109"
         d="m 443.17514,751.8101 c -0.9582,-1.46239 -2.92691,-2.21942 -9.71321,-3.73502 -9.46035,-2.1128 -14.15385,-3.8216 -15.29962,-5.57027 -0.92603,-1.4133 -0.50264,-7.52397 0.72027,-10.39552 1.17096,-2.74955 1.17771,-3.22408 0.0532,-3.73645 -1.12755,-0.51375 -1.12087,-0.92416 0.04,-2.45492 1.61037,-2.12352 2.33976,-4.14751 2.32869,-6.46184 -0.009,-1.80402 -0.2219,-2.51754 -1.35296,-4.52637 -3.97772,-7.06463 -4.12304,-7.59108 -3.12668,-11.32757 1.08144,-4.05556 0.38342,-7.15165 -3.62838,-16.094 -1.06658,-2.3774 -1.93923,-4.80888 -1.93923,-5.40328 0,-0.5944 0.43731,-2.02425 0.97179,-3.17746 1.28922,-2.78164 1.35744,-5.99887 0.17796,-8.39286 -0.448,-0.9093 -2.43736,-3.48072 -4.42081,-5.71428 -5.33919,-6.01244 -10.0588,-13.52877 -9.09813,-14.48943 0.13546,-0.13547 1.10745,0.17604 2.15998,0.69225 1.05252,0.51621 2.53464,1.04995 3.29359,1.1861 0.75895,0.13615 2.19899,0.62901 3.20009,1.09524 2.12882,0.99143 3.0916,1.06376 3.74118,0.28107 0.47094,-0.56745 2.00383,-0.55821 3.77827,0.0228 0.61238,0.2005 1.30057,-0.20832 3.39285,-2.01554 6.012,-5.1929 11.60452,-9.22632 12.79269,-9.22632 0.36374,0 1.05912,0.47274 1.54531,1.05054 1.37109,1.62946 1.81635,4.17397 1.54913,8.85277 -0.2617,4.58203 -0.20414,4.77803 2.14966,7.31898 1.94673,2.10152 2.29178,2.99389 2.02585,5.23925 -0.29956,2.52937 0.67199,3.99365 6.97139,10.5069 6.53885,6.76082 8.32969,8.88137 9.3935,11.12297 0.60902,1.28328 1.35464,2.11801 2.71164,3.03571 3.70146,2.50318 4.0743,5.42549 1.39108,10.90334 -0.93561,1.91007 -2.1779,4.76598 -2.76065,6.34646 -1.87714,5.09109 -6.77579,25.02475 -7.9644,32.40889 -0.47638,2.95948 -0.78029,3.66584 -1.7261,4.01195 -0.14292,0.0523 -0.43159,1.38081 -0.6415,2.95224 -0.45894,3.43579 -1.31282,6.60714 -1.77897,6.60714 -0.18641,0 -0.60826,-0.41104 -0.93743,-0.91343 l 0,0 z"
         style="fill:#ffffff;fill-opacity:1;stroke:#000000;stroke-opacity:1"
         inkscape:connector-curvature="0" />
    </a>
    <a
       style="fill:#ffffff;fill-opacity:1;display:inline"
       id="a3662"
       transform="matrix(1.1251764,0,0,1.1251764,-218.27843,-428.1826)">
      <path
         id="path3155"
         d="m 352.72285,540.02361 c -1.15763,-1.39485 -3.56971,-2.09834 -6.28584,-1.83329 -2.42406,0.23655 -5.06936,-0.41141 -5.87843,-1.4399 -1.13108,-1.43784 -2.41272,-1.51197 -5.54583,-0.32077 -4.14148,1.57459 -9.4117,0.82794 -9.4117,-1.33338 0,-0.65381 -2.32109,-4.62835 -5.15798,-8.8323 -3.87839,-5.74735 -5.33731,-9.59436 -5.8809,-15.50722 l -0.72293,-7.86367 8.27348,-8.20776 c 4.55041,-4.51427 8.81987,-8.20776 9.48769,-8.20776 0.66782,0 1.8015,1.54469 2.51931,3.43265 0.7178,1.88797 1.9876,3.85448 2.82178,4.37003 0.83418,0.51555 1.51669,2.50657 1.51669,4.42448 0,4.50809 5.51429,4.79735 9.40915,0.49358 l 2.70912,-2.99354 0.82553,3.35069 c 0.46462,1.88583 1.81751,3.27355 3.09459,3.17426 2.45183,-0.19062 4.44419,6.13812 2.34145,7.43768 -1.72211,1.06433 -1.54926,6.85503 0.25859,8.66288 1.96796,1.96796 1.15083,22.25242 -0.92402,22.93773 -0.86422,0.28545 -2.41661,-0.49953 -3.44975,-1.74439 z"
         style="fill:#ffffff;fill-opacity:1;stroke:#000000;stroke-opacity:1"
         inkscape:connector-curvature="0" />
    </a>
    <a
       style="fill:#ffffff;fill-opacity:1;display:inline"
       id="a3659"
       transform="matrix(1.1251764,0,0,1.1251764,-218.27843,-428.1826)">
      <path
         inkscape:label="#Nkhotakota"
         id="path2903"
         d="m 361.95866,531.60176 c -0.50308,-2.68169 -0.49072,-6.21166 0.0275,-7.84436 0.5182,-1.63271 0.41854,-3.77789 -0.22146,-4.76706 -0.64,-0.98917 -1.16363,-5.43238 -1.16363,-9.87379 0,-7.00384 -0.5293,-8.56601 -3.98924,-11.77372 -5.00918,-4.64403 -11.01076,-6.41402 -11.01076,-3.24731 0,4.12317 -2.72409,3.92602 -4.93916,-0.35746 -3.35875,-6.4951 -2.74533,-11.22437 2.08201,-16.05171 2.35715,-2.35715 4.28572,-4.9406 4.28572,-5.74101 0,-3.46866 -6.03397,-9.41484 -12.7422,-12.55681 -8.32144,-3.89755 -9.1358,-6.70755 -4.31286,-14.88182 2.20411,-3.73569 5.77208,-6.35945 14.18348,-10.43002 10.92013,-5.28462 17.10328,-11.36217 15.00828,-14.75195 -0.48699,-0.78796 -3.57768,-1.35054 -6.86821,-1.25017 -3.29053,0.10037 -8.3939,-0.69675 -11.34082,-1.77138 -4.49733,-1.64002 -5.4854,-2.75825 -6.15089,-6.96119 -1.20471,-7.60834 -4.08861,-11.73736 -9.39609,-13.45285 -6.35205,-2.05311 -7.19708,-7.49003 -1.77174,-11.39934 3.62888,-2.61483 3.89071,-2.61883 8.11424,-0.12393 2.4004,1.41795 6.33752,2.96591 8.74916,3.43991 3.39085,0.66646 5.11631,2.3137 7.6119,7.26679 5.1328,10.18729 8.52231,14.02821 12.81483,14.52153 3.25628,0.37422 4.19521,1.41498 5.29557,5.86984 0.92936,3.7626 0.80679,6.88261 -0.40169,10.2246 -1.47982,4.09237 -1.3316,5.8823 0.99389,12.0025 1.50319,3.95607 4.09466,8.92384 5.75882,11.03948 1.66417,2.11564 3.02576,5.55993 3.02576,7.65397 0,2.09404 0.71387,4.52122 1.58638,5.39373 2.79666,2.79666 5.85472,17.80352 7.05336,34.6131 1.01026,14.16768 0.86342,16.56312 -1.10352,18.00137 -2.23358,1.63324 -2.82964,8.08793 -1.21628,13.17116 0.63278,1.99371 -0.90157,3.16835 -7.46088,5.71178 -10.76589,4.17457 -11.42072,4.08689 -12.50145,-1.67388 l 0,0 z"
         style="fill:#ffffff;fill-opacity:1;stroke:#000000;stroke-opacity:1"
         inkscape:connector-curvature="0" />
    </a>
    <a
       style="fill:#ffffff;fill-opacity:1;display:inline"
       id="a3656"
       transform="matrix(1.1251764,0,0,1.1251764,-218.27843,-428.1826)">
      <path
         inkscape:label="#Mchinji"
         id="path2905"
         d="m 258.10479,598.93631 c -2.94436,-1.78249 -6.35582,-4.67205 -7.581,-6.42125 -3.39743,-4.85051 -8.38526,-4.00356 -14.92274,2.53392 -6.60026,6.60026 -7.77939,7.01635 -6.60322,2.33012 0.58744,-2.34056 -0.13576,-4.50536 -2.34514,-7.0199 -1.75697,-1.99965 -5.37416,-6.32689 -8.03818,-9.6161 -2.66403,-3.2892 -6.69908,-7.1087 -8.96677,-8.48777 -3.59676,-2.18732 -3.84467,-2.73846 -1.94203,-4.3175 2.9807,-2.47377 2.77196,-3.73333 -1.55993,-9.41273 -2.41542,-3.16678 -4.9464,-4.90469 -7.14286,-4.90469 -5.08657,0 -4.13894,-1.75674 2.9867,-5.53689 3.51372,-1.86402 6.74586,-4.51484 7.18254,-5.89069 0.43668,-1.37586 3.04177,-4.99251 5.78909,-8.03699 2.74732,-3.04449 5.94374,-6.66043 7.10317,-8.03543 1.60915,-1.90833 4.30568,-2.5 11.39377,-2.5 8.88618,0 9.28571,0.14967 9.28571,3.47843 0,6.24402 2.88048,11.38556 10.99335,19.62266 l 7.9789,8.10109 -2.24892,5.6206 c -1.23691,3.09134 -2.67511,9.41013 -3.196,14.04177 -0.79887,7.10332 -0.5099,8.98007 1.84652,11.9926 3.35331,4.28698 7.4833,12.13203 7.4833,14.21477 0,2.21076 -1.53954,1.85012 -7.49626,-1.75602 z"
         style="fill:#ffffff;fill-opacity:1;stroke:#000000;stroke-opacity:1"
         inkscape:connector-curvature="0" />
    </a>
    <a
       style="fill:#ffffff;fill-opacity:1;stroke:#000000;stroke-width:1;stroke-miterlimit:4;stroke-opacity:1;stroke-dasharray:none;display:inline"
       id="a3379"
       inkscape:label="#Lilongwe"
       transform="matrix(1.1251764,0,0,1.1251764,-218.27843,-428.1826)">
      <path
         inkscape:label="#Lilongwe"
         id="path2907"
         d="m 303.00881,661.94174 c -1.59201,-3.15377 -2.342,-4.05688 -5.01618,-6.04031 -1.30442,-0.96749 -2.96919,-2.48825 -3.69947,-3.37947 -1.98338,-2.42045 -3.34073,-3.61743 -5.71456,-5.0394 -4.45906,-2.67105 -4.76005,-2.94592 -5.55038,-5.06845 -1.70553,-4.5804 -6.96835,-13.6663 -10.40422,-17.96218 -2.376,-2.97071 -4.25604,-6.59162 -4.48716,-8.64217 -0.14119,-1.25263 0.0111,-1.88827 0.75752,-3.16196 1.21003,-2.06476 1.17762,-3.07527 -0.17551,-5.47289 l -1.10976,-1.96638 1.28833,-1.87059 c 0.70858,-1.02883 1.28833,-2.27514 1.28833,-2.76959 0,-0.49446 -0.74931,-2.10021 -1.66513,-3.56834 -0.91582,-1.46813 -2.05513,-3.62546 -2.53179,-4.79405 -1.06381,-2.60802 -2.40026,-4.58036 -5.18804,-7.65649 -3.34214,-3.68785 -3.40036,-3.90845 -2.09136,-7.92471 0.6033,-1.85103 1.44454,-4.28549 1.86942,-5.40991 0.72418,-1.91651 0.73605,-2.10003 0.1897,-2.93386 -0.84796,-1.29414 -0.7388,-1.87186 0.80913,-4.28256 0.76557,-1.19226 1.50578,-2.56954 1.64491,-3.06061 0.13914,-0.49107 0.87884,-1.47697 1.64378,-2.19089 0.92172,-0.86023 1.3908,-1.60889 1.3908,-2.21971 0,-1.15848 1.56313,-2.96028 4.06001,-4.67995 1.05774,-0.7285 2.11998,-1.75347 2.36052,-2.27771 0.24055,-0.52424 0.5228,-2.56031 0.62722,-4.5246 0.24395,-4.58885 0.39851,-4.89232 2.34091,-4.59614 0.82731,0.12615 1.70188,0.38515 1.94349,0.57556 0.30478,0.24018 0.43849,1.67424 0.43669,4.68338 -0.003,4.58412 0.1168,5.24548 1.63324,9.036 0.81118,2.02762 0.92058,2.71018 0.73045,4.55729 -0.29258,2.84231 0.47021,4.49511 2.28711,4.95567 0.68258,0.17302 1.83817,0.85404 2.56797,1.51338 0.74346,0.67166 1.91255,1.30865 2.65877,1.44864 1.95846,0.36741 8.75545,-0.1041 10.55055,-0.7319 0.85419,-0.29873 2.9995,-0.79496 4.76736,-1.10273 5.0243,-0.87469 8.78959,-1.91562 10.47447,-2.89572 0.85024,-0.49459 1.61813,-0.82702 1.70642,-0.73873 0.0883,0.0883 -7.2e-4,0.58453 -0.19772,1.10276 -0.46786,1.23058 -0.0947,3.01968 0.72084,3.45615 0.42005,0.22481 0.72431,0.93731 0.87152,2.04089 0.50585,3.79229 1.59822,4.94735 4.37789,4.62912 1.24715,-0.14278 1.85451,-0.0454 2.31997,0.37185 1.06302,0.95297 4.35722,1.02358 6.14308,0.13168 1.40522,-0.7018 1.75145,-0.733 4.26089,-0.38397 1.50226,0.20895 3.57156,0.77107 4.59844,1.24916 1.02688,0.47809 2.40527,0.87082 3.06308,0.87274 1.95414,0.006 3.50484,1.00555 6.21554,4.0076 1.40959,1.56111 2.85592,2.9952 3.21404,3.18686 0.48295,0.25846 1.13203,0.11767 2.51277,-0.54504 1.22243,-0.58672 3.23826,-1.08002 5.87097,-1.43669 3.93821,-0.53354 6.25354,-1.34126 7.23517,-2.52406 1.0736,-1.2936 1.7443,-1.3518 3.41503,-0.2963 0.87405,0.55219 1.58947,1.1512 1.58982,1.33115 3.5e-4,0.17994 -0.72258,1.48751 -1.60651,2.90572 -1.85776,2.98066 -2.00869,3.95355 -0.69103,4.45452 1.48687,0.56531 2.46298,0.41133 4.63484,-0.73114 1.12864,-0.5937 2.10995,-1.02156 2.18071,-0.9508 0.0708,0.0707 -1.22983,1.70182 -2.89019,3.62459 -1.66036,1.92278 -3.11288,3.92414 -3.22783,4.44748 -0.11494,0.52334 -0.84646,1.89078 -1.6256,3.03877 -0.77914,1.14798 -1.41907,2.50751 -1.42208,3.02118 -0.007,1.27163 -0.31423,1.65658 -1.81959,2.28328 -0.96335,0.40105 -2.10388,1.6188 -4.51097,4.8164 -1.77189,2.3538 -3.40827,4.84518 -3.63639,5.5364 -0.22813,0.69123 -1.21332,2.16932 -2.18931,3.28464 -1.82856,2.0896 -2.83827,3.71753 -2.83827,4.57609 0,1.40627 -3.21733,2.80679 -7.62944,3.32111 -3.65825,0.42645 -5.79193,3.11085 -6.33719,7.97285 -0.16403,1.46276 -0.49024,2.77822 -0.7249,2.92325 -0.23465,0.14502 -1.16345,0.37082 -2.06398,0.50177 -0.90054,0.13095 -1.9933,0.46664 -2.42835,0.74598 -0.50643,0.32516 -1.76766,0.50788 -3.50563,0.50788 -1.49304,0 -3.06565,0.18175 -3.4947,0.40389 -0.42905,0.22213 -1.9051,1.48176 -3.2801,2.79915 -2.9874,2.86226 -4.82994,4.10563 -6.87969,4.64251 -2.64353,0.69241 -4.96168,3.30852 -6.34999,7.16616 -0.3158,0.87749 -0.87567,3.50089 -1.24415,5.82978 -0.59259,3.74525 -0.82322,4.45684 -1.99672,6.16071 -0.72971,1.05951 -1.45843,1.92637 -1.61938,1.92637 -0.16096,0 -0.79474,-0.99466 -1.40843,-2.21036 l 0,0 z"
         style="fill:#ffffff;fill-opacity:1;stroke:#000000;stroke-width:1;stroke-miterlimit:4;stroke-opacity:1;stroke-dasharray:none"
         inkscape:connector-curvature="0" />
    </a>
    <a
       style="fill:#ffffff;fill-opacity:1;stroke:#000000;stroke-opacity:1;display:inline"
       id="a3376"
       transform="matrix(1.1251764,0,0,1.1251764,-218.27843,-428.1826)">
      <path
         inkscape:label="#Kasungu"
         id="path2909"
         d="m 257.5382,544.69184 c -8.10484,-8.48327 -10.50518,-12.46332 -10.53046,-17.46072 -0.0391,-7.7233 -1.23726,-8.33525 -14.09228,-7.19732 -13.67929,1.21089 -14.68894,-0.12907 -6.73287,-8.93549 4.71895,-5.22331 4.80601,-5.53314 2.85714,-10.16813 -2.59644,-6.17512 -2.55065,-12.81002 0.13275,-19.23228 3.59943,-8.61466 2.82151,-15.75048 -2.27239,-20.84437 l -4.41523,-4.41524 3.20048,-5.33751 c 1.76027,-2.93563 4.47714,-7.68807 6.03749,-10.56097 3.49392,-6.43298 10.74692,-8.16644 14.72579,-3.51946 2.3564,2.75207 2.53683,2.67335 8.61313,-3.75774 5.70402,-6.03709 6.72315,-6.5487 12.59246,-6.32155 5.53449,0.21419 7.06962,-0.41941 11.51102,-4.75103 2.81868,-2.749 5.71256,-6.411 6.43086,-8.13776 1.8121,-4.35622 8.27254,-8.44999 10.23619,-6.48634 1.06509,1.06509 0.4089,2.4732 -2.21621,4.7557 -4.16553,3.62189 -4.53656,6.08685 -1.68994,11.2271 1.6492,2.97802 1.62557,3.97677 -0.1585,6.69961 -5.92753,9.04655 11.86186,21.87165 22.46586,16.19656 4.2653,-2.28272 8.51041,1.12212 8.51041,6.82586 0,3.74397 0.92652,5.24227 4.64286,7.50817 2.55357,1.55694 6.08929,2.83321 7.85714,2.83614 1.76786,0.003 3.21429,0.7583 3.21429,1.67857 0,0.92028 0.93681,2.70839 2.08179,3.97358 1.84706,2.04097 1.59711,2.81898 -2.21663,6.89967 -2.36414,2.52962 -6.35452,5.65034 -8.86751,6.93493 -2.51299,1.28459 -7.53195,5.40571 -11.15325,9.15805 -3.62129,3.75234 -9.72843,8.42383 -13.57143,10.38108 -3.84299,1.95726 -9.16572,6.03191 -11.82829,9.05477 -3.63299,4.12459 -5.93235,5.49612 -9.21425,5.49612 -4.06838,0 -4.3871,0.37466 -4.57247,5.375 -0.13066,3.52429 -1.75388,7.53977 -4.71433,11.66211 -2.48328,3.45791 -4.51506,7.82131 -4.51506,9.69643 0,3.59362 -2.36671,6.83789 -4.98827,6.83789 -0.85784,0 -4.16997,-2.73214 -7.36029,-6.07143 l 0,0 z"
         style="fill:#ffffff;fill-opacity:1;stroke:#000000;stroke-opacity:1"
         inkscape:connector-curvature="0" />
    </a>
    <a
       id="a2911"
       inkscape:label="#Dowa"
       style="display:inline"
       transform="matrix(1.1251764,0,0,1.1251764,-218.27843,-428.1826)">
      <path
         id="path3137"
         d="m 348.45819,575.07493 c -4.02795,-3.12144 -14.48784,-5.74023 -22.92746,-5.74023 -5.33168,0 -5.64397,-0.23962 -5.64397,-4.33055 0,-2.3818 -0.85338,-4.65802 -1.8964,-5.05827 -1.04302,-0.40024 -7.765,0.57949 -14.93773,2.17719 l -13.04133,2.90491 -3.91927,-3.63226 c -3.33085,-3.08693 -3.95103,-4.86919 -4.13078,-11.87107 -0.11632,-4.53134 -0.87554,-9.42539 -1.68715,-10.87566 -1.06034,-1.8947 -0.92043,-3.96568 0.49707,-7.35826 1.085,-2.59677 1.97273,-6.02777 1.97273,-7.62443 0,-2.31476 0.94083,-2.911 4.64286,-2.94236 3.63735,-0.0308 5.41633,-1.11326 8.21429,-4.99813 2.85985,-3.97081 11.31963,-10.67683 13.46904,-10.67683 0.24672,0 0.86427,3.13363 1.37234,6.96362 0.56865,4.28668 2.51409,9.15901 5.06076,12.67459 2.27536,3.14103 4.3532,7.17505 4.61743,8.96449 0.26424,1.78943 2.1911,4.52583 4.28192,6.08089 3.16443,2.35355 4.52628,2.57471 8.12645,1.31968 3.38677,-1.18063 4.68936,-1.06861 6.00483,0.51643 1.04273,1.25642 2.97945,1.69794 5.10638,1.16411 1.88459,-0.473 4.22174,-0.20695 5.19368,0.59122 0.97194,0.79816 3.37431,1.67352 5.3386,1.94523 2.98199,0.4125 3.64421,1.37165 4.01245,5.81165 0.3482,4.19851 1.69725,6.39291 6.41017,10.42699 4.15386,3.55556 6.88628,4.87919 8.98493,4.35246 2.21319,-0.55547 3.43098,0.15435 4.57591,2.6672 1.85298,4.06685 1.65579,4.17627 -13.05914,7.24618 -12.65349,2.63983 -12.3119,2.65418 -16.63861,-0.69879 z"
         style="fill:#ffffff;fill-opacity:1;stroke:#000000;stroke-opacity:1"
         inkscape:connector-curvature="0" />
    </a>
    <a
       id="a2913"
       inkscape:label="#Dedza"
       style="display:inline"
       transform="matrix(1.1251764,0,0,1.1251764,-218.27843,-428.1826)">
      <path
         id="path3149"
         d="m 317.38676,657.74177 c -2.55357,-1.63535 -4.64286,-4.11851 -4.64286,-5.51813 0,-3.49934 11.61389,-12.72252 17.40326,-13.82081 7.10027,-1.34697 9.81856,-3.154 11.3491,-7.5445 0.97962,-2.81014 2.92827,-4.45022 6.67281,-5.61616 4.04412,-1.25922 6.56691,-3.57748 10.71754,-9.8486 8.86589,-13.39536 15.80818,-22.94765 18.96639,-26.09697 l 2.96625,-2.95788 7.74804,10.22219 c 4.26142,5.6222 9.35519,12.39797 11.31947,15.05726 2.92571,3.96088 4.25706,4.69302 7.36358,4.0494 3.12803,-0.64808 4.48244,0.11936 7.73378,4.38208 2.1679,2.84226 5.76501,6.11065 7.99357,7.26309 2.32086,1.20016 4.05193,3.26996 4.05193,4.8448 0,1.51221 1.05125,3.33778 2.33612,4.05683 1.93369,1.08215 0.91374,2.38128 -5.92078,7.54139 -6.60875,4.98965 -9.35427,6.20525 -13.75449,6.08987 -3.02367,-0.0793 -6.47213,-0.95295 -7.66323,-1.94148 -4.97406,-4.1281 -41.85063,0.005 -48.15675,5.39725 -1.84815,1.58034 -4.36134,1.85113 -10.29726,1.10948 -6.87425,-0.85888 -8.63182,-0.52433 -14.10924,2.68565 -3.44125,2.01671 -6.52177,3.65591 -6.8456,3.64267 -0.32382,-0.0132 -2.67806,-1.36208 -5.23163,-2.99743 z"
         style="fill:#ffffff;fill-opacity:1;stroke:#000000;stroke-opacity:1"
         inkscape:connector-curvature="0" />
    </a>
  </g>
  <g
     inkscape:label="Layer 1"
     inkscape:groupmode="layer"
     id="layer1"
     transform="translate(-224.2583,-323.59824)"
     style="display:inline;opacity:0">
    <path
       id="regionpath"
       d="m 479.1345,609.86109 12.1218,0 0,21.2132 -12.1218,0 0,-21.2132 z m -227.2641,-94.93405 17.1726,0 0,23.23351 -17.1726,0 0,-23.23351 z m 8.0813,-38.38581 42.4265,0 0,18.18275 -42.4265,0 0,-18.18275 z m 228.2539,144.93663 c 0,8.64732 -7.0101,15.65737 -15.6574,15.65737 -8.6474,0 -15.6574,-7.01005 -15.6574,-15.65737 0,-8.64732 7.01,-15.65736 15.6574,-15.65736 7.4364,0 13.847,5.23069 15.3389,12.5159 l -15.3389,3.14146 z m 15.1929,66.69036 c 0,8.08943 -4.5226,14.64721 -10.1015,14.64721 -5.579,0 -10.1016,-6.55778 -10.1016,-14.64721 0,-8.08944 4.5226,-14.64722 10.1016,-14.64722 5.5789,0 10.1015,6.55778 10.1015,14.64722 z m -36.3656,-148.9975 c 0,8.36838 -5.8793,15.15229 -13.1319,15.15229 -7.2526,0 -13.132,-6.78391 -13.132,-15.15229 0,-8.36838 5.8794,-15.15229 13.132,-15.15229 7.2526,0 13.1319,6.78391 13.1319,15.15229 z m -27.2741,70.20557 c 0,4.18418 -3.3919,7.57614 -7.5761,7.57614 -4.1842,0 -7.5761,-3.39196 -7.5761,-7.57614 0,-4.18419 3.3919,-7.57615 7.5761,-7.57615 4.1842,0 7.5761,3.39196 7.5761,7.57615 z m -64.6498,11.61676 c 0,5.02102 -6.7839,9.09137 -15.1522,9.09137 -8.3684,0 -15.1523,-4.07035 -15.1523,-9.09137 0,-5.02103 6.7839,-9.09138 15.1523,-9.09138 8.3683,0 15.1522,4.07035 15.1522,9.09138 z m 16.1625,-11.61676 c 0,8.64732 -9.4975,15.65736 -21.2132,15.65736 -11.7157,0 -21.2132,-7.01004 -21.2132,-15.65736 0,-8.64733 9.4975,-15.65737 21.2132,-15.65737 11.7157,0 21.2132,7.01004 21.2132,15.65737 z M 387.231,409.91178 c 0,6.13681 -5.201,11.11168 -11.6168,11.11168 -6.4157,0 -11.6167,-4.97487 -11.6167,-11.11168 0,-6.13681 5.201,-11.11168 11.6167,-11.11168 6.4158,0 11.6168,4.97487 11.6168,11.11168 z m 41.4161,13.59643 c 0,8.08943 -5.6532,14.64721 -12.6269,14.64721 -6.9736,0 -12.6269,-6.55778 -12.6269,-14.64721 0,-8.08943 5.6533,-14.64721 12.6269,-14.64721 6.9737,0 12.6269,6.55778 12.6269,14.64721 z m -3.0304,33.33506 c 0,26.49986 -21.0301,47.98224 -46.9721,47.98224 -25.942,0 -46.9721,-21.48238 -46.9721,-47.98224 0,-26.49987 21.0301,-47.98225 46.9721,-47.98225 25.942,0 46.9721,21.48238 46.9721,47.98225 z m -56.5685,117.17767 c 0,9.76311 -7.01,17.67767 -15.6574,17.67767 -8.6473,0 -15.6573,-7.91456 -15.6573,-17.67767 0,-9.76311 7.01,-17.67767 15.6573,-17.67767 8.6474,0 15.6574,7.91456 15.6574,17.67767 z m 91.9239,-5.55585 c 0,27.3367 -24.8744,49.49748 -55.5584,49.49748 -30.6841,0 -55.5584,-22.16078 -55.5584,-49.49748 0,-27.3367 24.8743,-49.49747 55.5584,-49.49747 30.684,0 55.5584,22.16077 55.5584,49.49747 z m -18.1828,-60.10406 c 0,18.13148 -42.5125,32.82995 -94.9544,32.82995 -52.4418,0 -94.9543,-14.69847 -94.9543,-32.82995 0,-18.13149 42.5125,-32.82996 94.9543,-32.82996 52.4419,0 94.9544,14.69847 94.9544,32.82996 z m -66.6701,10.60662 c 0,22.87357 -26.6834,41.41626 -59.599,41.41626 -32.9156,0 -59.599,-18.54269 -59.599,-41.41626 0,-22.87356 26.6834,-41.41625 59.599,-41.41625 32.9156,0 59.599,18.54269 59.599,41.41625 z m -11.1117,-72.73098 c 0,17.85254 -17.412,32.32488 -38.8908,32.32488 -21.4789,0 -38.8909,-14.47234 -38.8909,-32.32488 0,-17.85254 17.412,-32.32489 38.8909,-32.32489 21.4788,0 38.8908,14.47235 38.8908,32.32489 z m -63.9053,-7.58794 c -1.4439,-1.73981 -0.5729,-5.18374 1.5135,-5.98437 2.0854,-0.80026 1.8329,-4.31455 -0.476,-6.62342 -1.7695,-1.76955 -1.8023,-2.07749 -0.3498,-3.283 2.2384,-1.85765 10.2057,-1.72857 11.4153,0.18495 1.0649,1.68463 1.2867,9.39286 0.3687,12.81591 -1.0007,3.7316 -10.0356,5.82517 -12.4717,2.88993 l 0,0 z m -42.3735,94.57484 c -1.3989,-2.61387 -1.437,-12.81518 -0.058,-15.39275 1.2379,-2.31291 7.1704,-2.71049 8.9236,-0.59802 0.6189,0.74572 1.1894,4.19214 1.2678,7.65869 0.1598,7.07187 -0.8516,8.75784 -5.8541,9.75835 -2.5514,0.51028 -3.3934,0.22966 -4.2797,-1.42627 z m 229.4685,164.66099 c -0.9858,-0.62599 -0.9001,-1.71096 0.3958,-5.00991 1.6287,-4.14649 1.6171,-4.24214 -0.7621,-6.25589 -2.3697,-2.0058 -2.3785,-2.07408 -0.4552,-3.56092 2.5426,-1.96569 9.0405,-1.9593 10.6753,0.0105 1.6007,1.92873 -0.9,9.08154 -4.553,13.02325 -2.5973,2.80258 -3.3239,3.04834 -5.3008,1.79296 z m -60.1085,-85.15943 c -3.2526,-1.23183 -3.6421,-3.50377 -0.7576,-4.41925 2.5509,-0.80963 2.5432,-1.98419 -0.037,-5.60748 l -2.0571,-2.8889 3.1398,-1.62365 c 3.9529,-2.04413 6.0251,-0.6524 6.0251,4.04658 0,1.81205 0.9608,4.49703 2.1503,6.00927 1.2916,1.64204 1.7833,3.1007 1.2311,3.65282 -1.5096,1.50963 -6.7226,1.95626 -9.6948,0.83061 l 0,0 z m 23.1246,-65.02908 c -1.7397,-1.73964 -4.1237,-12.03107 -3.2902,-14.20311 0.6437,-1.67755 6.2526,-1.95091 10.0904,-0.49178 5.8337,2.21795 6.0286,10.75717 0.3249,14.2349 -3.885,2.36883 -5.1355,2.44957 -7.1251,0.45999 z M 411.4531,429.35561 c -1.8703,-0.7581 -2.6462,-6.86304 -1.3655,-10.74373 1.8392,-5.57271 8.9106,-7.71482 11.5464,-3.49767 1.6278,2.60455 2.7638,10.07755 1.775,11.6774 -1.4585,2.35995 -8.6529,3.90282 -11.9559,2.564 l 0,0 z m -34.7585,58.58286 c -1.7182,-2.07521 -1.6262,-11.86823 0.1314,-13.98593 1.518,-1.82906 9.1676,-2.03946 10.9071,-0.29999 0.6778,0.67785 1.2122,3.92837 1.2122,7.37411 0,3.44574 -0.5344,6.69627 -1.2122,7.37412 -1.8374,1.83737 -9.3966,1.52078 -11.0385,-0.46231 l 0,0 z m 8.4626,44.1275 c -2.7939,-1.19441 -2.8352,-2.06969 -0.2525,-5.35301 2.3997,-3.05072 2.5084,-3.76497 0.5731,-3.76497 -2.0104,0 -3.0262,-3.81723 -1.5039,-5.65145 0.8859,-1.06745 2.7723,-1.42552 6.3969,-1.21422 l 5.1405,0.29968 0.1456,5.82862 c 0.08,3.20574 0.7131,6.51234 1.4066,7.34801 0.6936,0.83568 1.0306,1.74982 0.749,2.03144 -1.0559,1.0559 -10.4705,1.40994 -12.6553,0.4759 z m -30.5502,49.48371 c -0.5985,-1.11823 -2.0949,-2.04011 -3.3255,-2.04861 -3.9311,-0.0272 -4.7346,-1.15707 -3.2811,-4.61383 1.6519,-3.92888 7.393,-10.52299 9.1616,-10.52299 1.373,0 1.8403,1.0626 2.9988,6.81853 0.3729,1.85307 1.2857,3.28299 2.0957,3.28299 3.1883,0 0.084,5.71686 -4.331,7.97584 -1.8791,0.96145 -2.4018,0.82095 -3.3185,-0.89193 l 0,0 z m 141.9802,155.0614 c -4.4446,-1.49091 -10.5813,-3.28311 -13.637,-3.98266 -6.3154,-1.44578 -6.6209,-3.29902 -3.2836,-19.91691 2.0773,-10.34332 1.9112,-11.77385 -1.935,-16.6634 -3.4155,-4.34222 -3.7663,-6.05475 -1.8641,-9.10065 1.7058,-2.73154 1.751,-5.0221 0.1662,-8.42229 -5.3829,-11.54876 -6.4358,-15.97156 -5.3682,-22.55007 0.936,-5.76795 0.1647,-8.07241 -4.2713,-12.76237 -10.3117,-10.90209 -10.2989,-12.45777 0.1031,-12.45777 6.6111,0 10.5524,-1.20663 13.7483,-4.20897 2.4641,-2.31493 5.5581,-4.20897 6.8754,-4.20897 1.3173,0 2.4091,-1.13642 2.4261,-2.52538 0.021,-1.68358 0.6838,-1.51523 1.9894,0.50508 1.0771,1.66675 1.9723,6.34245 1.9893,10.39045 0.019,4.61904 1.1469,7.7882 3.0274,8.50982 1.648,0.6324 2.5107,2.41535 1.9172,3.9621 -0.6347,1.65401 3.1237,6.84019 9.1254,12.59201 5.6126,5.37885 10.2046,11.42084 10.2046,13.42664 0,2.0058 1.3637,3.64691 3.0305,3.64691 3.8526,0 3.8852,6.1014 0.072,13.47334 -3.7849,7.31711 -13.2039,41.72617 -13.2039,48.23616 0,5.67426 -0.2112,5.71337 -11.1116,2.05693 z m -0.052,-43.46305 c 4.9334,-9.54 4.058,-12.22216 -3.9887,-12.22216 -7.0193,0 -10.1703,4.60184 -4.5457,6.63875 1.9763,0.71571 2.0022,1.8031 0.1189,5.00131 -1.3235,2.24772 -1.8539,4.63934 -1.1785,5.31472 2.7936,2.79354 6.6981,0.86746 9.594,-4.73262 l 0,0 z M 299.6075,569.75426 c -2.7779,-2.14276 -6.1552,-3.91615 -7.5051,-3.94085 -1.3498,-0.0247 -3.4274,-1.8632 -4.6167,-4.08554 -1.1894,-2.22233 -3.531,-4.04061 -5.2037,-4.04061 -4.2137,0 -14.9994,8.2633 -14.9994,11.49161 0,1.45779 -0.9704,2.65053 -2.1564,2.65053 -1.2233,0 -1.612,-1.71562 -0.8982,-3.9645 0.8347,-2.62995 -0.1396,-5.16139 -2.8943,-7.52006 -2.2839,-1.95556 -4.1526,-4.60144 -4.1526,-5.87972 0,-1.27829 -3.9119,-5.93005 -8.6932,-10.33725 -7.0087,-6.46041 -8.2857,-8.65909 -6.5902,-11.34702 1.6416,-2.60248 1.111,-4.02876 -2.4185,-6.50091 -2.4868,-1.74184 -4.5215,-4.47914 -4.5215,-6.08288 0,-1.63811 -1.9061,-2.9159 -4.3497,-2.9159 l -4.3497,0 4.5897,-3.98063 c 2.5243,-2.18935 6.2999,-4.52345 8.3903,-5.18691 2.0904,-0.66345 3.8006,-2.90202 3.8006,-4.9746 0,-2.07257 1.7279,-4.31673 3.8398,-4.98701 2.1119,-0.67028 4.3986,-3.44511 5.0815,-6.16629 0.7398,-2.94744 3.067,-5.3155 5.7567,-5.85765 11.646,-2.34742 19.6897,-2.7693 19.9198,-1.04477 1.2341,9.25221 6.235,19.93917 9.8704,21.093 2.0969,0.66551 4.3482,2.8978 5.0029,4.96065 0.6547,2.06285 2.5195,4.26065 4.1439,4.88401 3.88,1.48888 3.7541,7.29943 -0.2829,13.06315 -1.7801,2.54143 -2.7724,5.085 -2.205,5.65237 0.5674,0.56736 0.2514,3.75196 -0.7022,7.07688 -2.07,7.21762 0.7022,15.8739 5.0835,15.8739 1.6943,0 3.0805,1.63645 3.0805,3.63655 0,2.0001 1.0114,4.64797 2.2476,5.88414 4.3364,4.33645 0.7933,6.45033 -4.2679,2.54631 z m -30.8139,-37.34903 c 0.9414,-1.68227 1.3417,-6.22796 0.8895,-10.10153 -0.7273,-6.22965 -1.4966,-7.04285 -6.6621,-7.04285 -5.661,0 -5.8399,0.30945 -5.8399,10.10153 0,9.37346 0.3568,10.10153 4.9504,10.10153 2.7227,0 5.7206,-1.37641 6.6621,-3.05868 z m 25.2477,-25.79156 c -7.436,-7.37436 -8.5953,-9.68468 -8.5863,-17.11171 l 0.01,-8.58629 -16.1625,0 c -8.8893,0 -16.1624,-0.70836 -16.1624,-1.57414 0,-0.86577 3.2362,-4.90603 7.1917,-8.97835 6.9197,-7.12421 7.0701,-7.58982 3.9758,-12.31224 -3.3263,-5.07667 -2.5021,-20.45598 1.2197,-22.75614 0.9652,-0.59654 1.7549,-5.12208 1.7549,-10.05675 0,-6.68456 -0.7837,-8.97214 -3.0738,-8.97214 -1.6905,0 -4.1134,-2.28184 -5.3841,-5.07075 -1.9641,-4.31081 -1.661,-5.76202 2.0229,-9.68336 2.3834,-2.53694 5.3497,-7.5282 6.592,-11.0917 1.8422,-5.28474 3.3394,-6.47908 8.1219,-6.47908 3.2248,0 5.8633,0.90914 5.8633,2.02031 0,4.06712 6.7865,1.86026 12.4257,-4.04061 4.7287,-4.94814 7.4331,-6.06092 14.7298,-6.06092 7.1649,0 9.1922,-0.80187 10.2208,-4.04275 0.7057,-2.22352 3.0398,-4.98291 5.1869,-6.132 2.1471,-1.14908 3.9038,-3.04795 3.9038,-4.2197 0,-2.79671 8.6315,-9.74754 10.5965,-8.53314 3.2508,2.00912 1.3213,6.76515 -2.7446,6.76515 -3.7501,0 -4.104,0.79934 -2.9067,6.56599 0.7497,3.6113 1.2969,9.29341 1.216,12.62691 -0.2212,9.10948 1.6697,15.15229 4.7416,15.15229 1.5095,0 3.8763,1.36371 5.2596,3.03046 3.0095,3.62625 10.7164,3.94241 15.9795,0.65552 4.7148,-2.9444 10.2845,1.69894 10.2845,8.5739 0,5.36332 5.3043,9.81099 11.8059,9.89922 3.0025,0.0408 5.1214,1.54252 5.7914,4.10487 0.5812,2.22233 2.0249,4.04061 3.2084,4.04061 2.8746,0 -12.7666,13.85848 -17.2702,15.30172 -1.9445,0.62315 -3.5355,2.43545 -3.5355,4.02732 0,1.59187 -1.0138,2.89431 -2.2529,2.89431 -1.2391,0 -5.103,3.06496 -8.5863,6.81102 -3.4834,3.74606 -9.7666,8.02845 -13.9626,9.51641 -4.7391,1.68054 -7.2505,3.69238 -6.6294,5.31081 0.6076,1.58328 -0.5605,2.60542 -2.9774,2.60542 -2.2319,0 -3.9772,1.36338 -3.9772,3.10693 0,2.17237 -1.6414,2.932 -5.4568,2.52538 -5.0158,-0.53454 -5.5836,0.15325 -7.0255,8.50983 -1.0582,6.13307 -3.2861,10.47804 -6.8468,13.35286 -3.9326,3.17509 -5.1031,5.74074 -4.5913,10.06404 1.0331,8.72724 -4.0407,8.08824 -13.9707,-1.75951 l 0,0 z m 19.3044,-68.6478 c 1.161,-1.39904 1.9542,-5.71744 1.7626,-9.59645 -0.3047,-6.16648 -1.0776,-7.13607 -6.1505,-7.71577 -6.1777,-0.70596 -12.4853,3.41946 -7.8351,5.12452 2.9966,1.09874 3.4182,6.65018 0.5051,6.65018 -1.1112,0 -2.0203,1.81827 -2.0203,4.04061 0,3.10449 1.3469,4.04061 5.8135,4.04061 3.1975,0 6.7636,-1.14467 7.9247,-2.5437 l 0,0 z m 101.1907,56.58686 c -0.1256,-2.50013 -0.4206,-10.45508 -0.6556,-17.67767 -0.5082,-15.62217 -2.3864,-22.22336 -6.3231,-22.22336 -1.5919,0 -2.8943,-1.3637 -2.8943,-3.03046 0,-4.89622 -9.1574,-3.70788 -11.6764,1.51523 l -2.1923,4.54569 -0.1367,-4.54569 c -0.075,-2.50012 -1.0459,-4.54568 -2.1571,-4.54568 -4.4101,0 -1.8028,-10.62981 4.0406,-16.47326 3.3335,-3.3335 6.0609,-6.45383 6.0609,-6.93405 0,-1.93856 -11.7021,-12.95818 -13.7607,-12.95818 -1.2164,0 -4.4341,-1.01263 -7.1504,-2.25029 -4.3665,-1.98948 -4.7309,-2.97523 -3.1449,-8.5053 2.0245,-7.05903 10.7814,-15.50838 16.0729,-15.50838 1.9306,0 4.0335,-1.36371 4.6731,-3.03046 0.6396,-1.66675 2.9052,-3.03046 5.0346,-3.03046 3.7265,0 10.3973,-7.73163 10.3973,-12.05075 0,-1.15026 -2.5002,-2.10139 -5.5559,-2.11362 -3.0557,-0.0122 -8.9651,-0.58575 -13.132,-1.27449 -6.5501,-1.08267 -7.5761,-1.98272 -7.5761,-6.64606 0,-8.67345 -4.496,-16.0621 -10.5946,-17.41087 -7.9791,-1.76468 -10.2711,-6.93269 -5.0738,-11.44035 4.9519,-4.29474 4.6736,-4.26406 10.2454,-1.12946 2.4271,1.36544 7.0195,3.411 10.2055,4.54568 5.3048,1.88932 13.5762,12.6686 16.6982,21.76103 0.7636,2.22405 3.2897,3.53554 6.8099,3.53554 4.6511,0 5.7436,1.00551 6.47,5.95494 0.4807,3.27521 0.034,7.45646 -0.9933,9.29166 -1.0271,1.8352 -1.3139,6.2013 -0.6374,9.70243 1.4299,7.40022 7.483,19.49768 9.7559,19.49768 0.8585,0 1.5609,3.12832 1.5609,6.95184 0,3.82351 0.9092,7.51371 2.0203,8.20045 1.1112,0.68674 2.0203,3.073 2.0203,5.30281 0,2.22981 1.1031,6.03999 2.4513,8.46706 1.3482,2.42708 2.6449,8.95856 2.8815,14.5144 0.2367,5.55584 1.0076,13.96536 1.7131,18.68782 1.0058,6.73118 0.6523,8.5863 -1.6357,8.5863 -3.7542,0 -5.6412,7.21065 -3.4175,13.05941 1.5031,3.95334 0.6726,5.10784 -6.3842,8.87455 -10.3376,5.51786 -13.7342,5.46561 -14.0197,-0.21568 l 0,0 z m 8.071,-65.9747 c 1.9915,-1.26134 2.3996,-3.85827 1.4237,-9.06043 -1.091,-5.81551 -2.2906,-7.2923 -5.9232,-7.2923 -2.5054,0 -5.6462,1.09096 -6.9796,2.42436 -2.5928,2.59285 -3.3096,12.1794 -1.0775,14.41151 1.9003,1.90027 9.2392,1.61789 12.5566,-0.48314 l 0,0 z m -20.3938,73.84294 c -1.6918,-1.69185 -7.7561,-2.88809 -15.5321,-3.06386 -15.152,-0.34251 -15.6719,-0.59263 -17.378,-8.36057 -0.7291,-3.31939 -2.9697,-7.18686 -4.9793,-8.59439 -5.1396,-3.59995 -6.6675,-23.71294 -1.8012,-23.71109 1.8533,7e-4 3.8758,-2.22712 4.5842,-5.04951 0.6972,-2.77792 2.614,-5.05076 4.2596,-5.05076 1.6456,0 2.992,-1.36371 2.992,-3.03046 0,-6.05933 6.16,-2.82945 9.5567,5.01086 1.916,4.42273 4.6407,8.48532 6.0549,9.02797 3.2174,1.23465 8.632,-0.73705 8.632,-3.1433 0,-0.99229 1.6721,-0.13213 3.7157,1.91146 2.9117,2.9117 3.9853,8.14319 4.9623,24.1791 1.2504,20.52556 0.099,25.0407 -5.0668,19.87455 l 0,0 z m -12.7025,-21.5053 c 0,-9.04327 -0.037,-9.09137 -7.0711,-9.09137 -6.7617,0 -7.0993,0.34462 -7.716,7.87558 -0.7205,8.79983 1.8405,11.64868 9.7363,10.83052 4.5617,-0.47268 5.0508,-1.4037 5.0508,-9.61473 z m 11.1116,63.01826 c 0,-2.69211 -15.0245,-8.47002 -22.0248,-8.47002 -9.4994,0 -14.2142,-3.07747 -12.8292,-8.37385 1.0076,-3.85325 0.556,-4.20796 -3.7178,-2.91969 -21.6945,6.53964 -32.1388,7.88064 -32.1388,4.12649 0,-1.61397 -0.6872,-2.93448 -1.5272,-2.93448 -2.7096,0 -7.0112,-12.17588 -5.8586,-16.58322 0.6146,-2.3502 0.3506,-5.7171 -0.5865,-7.48199 -2.5147,-4.73587 3.4606,-18.3612 8.0522,-18.3612 2.0286,0 4.2655,-1.81827 4.9708,-4.04061 0.7054,-2.22233 2.5849,-4.04061 4.1768,-4.04061 1.5919,0 2.8943,-1.3637 2.8943,-3.03045 0,-1.66676 1.4908,-3.03046 3.3128,-3.03046 1.8221,0 4.5205,-1.59099 5.9967,-3.53554 2.4443,-3.22001 2.6896,-3.05035 2.7481,1.90108 0.035,2.99013 0.9734,5.99848 2.0845,6.68522 1.1112,0.68674 2.0203,3.72167 2.0203,6.7443 0,3.17804 1.704,6.72386 4.0406,8.40799 2.2224,1.60177 4.0407,4.52988 4.0407,6.50691 0,1.97704 0.9091,3.59461 2.0203,3.59461 1.1111,0 2.0203,1.36371 2.0203,3.03046 0,3.6253 11.1273,4.25374 13.2923,0.75071 0.9626,-1.55758 1.9942,-1.2339 3.2566,1.02181 1.248,2.23006 3.3806,2.91681 6.5711,2.11605 2.5979,-0.65203 5.3308,-0.20271 6.0732,0.9985 0.7424,1.2012 3.0172,2.184 5.055,2.184 4.2747,0 6.3226,3.9844 4.8811,9.49656 -0.6909,2.64219 0.6016,4.68269 4.1788,6.59717 2.8486,1.52449 5.1792,3.52731 5.1792,4.45071 0,0.9234 2.6214,1.67892 5.8253,1.67892 4.1291,0 6.1334,1.17828 6.8835,4.04672 0.8916,3.40941 -0.192,4.24664 -6.8802,5.31613 -4.3662,0.69818 -8.4265,2.05913 -9.0231,3.02435 -1.3683,2.21392 -14.9883,2.32609 -14.9883,0.12343 z m -2.0203,-12.3914 c 0,-1.04559 -0.7575,-2.36927 -1.6834,-2.94151 -0.9259,-0.57224 -1.2773,-3.80787 -0.7809,-7.1903 0.8637,-5.88487 0.5881,-6.14987 -6.3977,-6.14987 -5.9535,0 -7.3004,0.74547 -7.3004,4.04061 0,2.22234 1.091,4.04062 2.4244,4.04062 1.8856,0 1.8856,0.53874 0,2.42436 -4.7946,4.79458 -2.6706,7.67716 5.6568,7.67716 4.4447,0 8.0812,-0.85548 8.0812,-1.90107 z m 60.6092,48.15377 c 0,-1.22904 -2.2729,-4.02243 -5.0508,-6.20755 -2.7779,-2.18511 -5.0507,-4.73885 -5.0507,-5.67497 0,-2.02915 -6.821,-10.5142 -14.9724,-18.62513 -5.7522,-5.72365 -5.7853,-5.87676 -1.5152,-6.99343 4.8432,-1.26652 4.9083,-1.49321 3.0688,-10.69043 -1.2134,-6.06694 -1.7236,-6.40446 -7.9233,-5.24139 -5.4031,1.01363 -7.215,0.40277 -9.8147,-3.30894 -1.7536,-2.50363 -3.1884,-7.55124 -3.1884,-11.21691 0,-5.38474 1.0671,-7.09199 5.5558,-8.88876 3.0557,-1.22315 8.9651,-3.98924 13.132,-6.14687 6.8292,-3.53619 7.5761,-3.59239 7.5761,-0.57003 0,3.18215 6.1115,13.16106 11.406,18.62389 1.3462,1.38896 4.6881,2.52538 7.4265,2.52538 2.7384,0 5.5022,1.36371 6.1418,3.03046 0.6396,1.66675 2.4829,3.03046 4.0962,3.03046 7.4919,0 4.8803,32.25166 -2.951,36.44284 -4.2696,2.28501 -5.0139,8.84137 -1.9258,16.96372 1.7028,4.47876 1.4286,5.18228 -2.0203,5.18228 -2.1948,0 -3.9906,-1.00558 -3.9906,-2.23462 z m 0.7973,-32.71527 c 2.3884,-1.7464 3.3629,-4.6203 2.9115,-8.5863 -0.6013,-5.28456 -1.5384,-6.03246 -8.2545,-6.58831 -8.1977,-0.67848 -8.6,0.0534 -6.3134,11.48617 1.3719,6.85978 5.523,8.17331 11.6564,3.68844 l 0,0 z m -96.7618,87.79819 c -3.3335,-1.84295 -6.3619,-3.50024 -6.7297,-3.68287 -2.0628,-1.02418 4.4057,-8.75933 7.325,-8.75933 1.9159,0 4.619,-1.81827 6.0069,-4.04061 1.3879,-2.22233 3.9246,-4.04061 5.6371,-4.04061 5.9894,0 15.0348,-6.10862 15.0348,-10.1534 0,-2.68771 1.365,-3.98873 4.1849,-3.98873 4.4728,0 9.9573,-4.37163 9.9573,-7.93691 0,-1.19054 1.3637,-2.16462 3.0304,-2.16462 1.6668,0 3.0305,-0.90703 3.0305,-2.01563 0,-1.10859 3.1819,-6.44471 7.071,-11.85803 3.8891,-5.41333 7.0711,-10.49725 7.0711,-11.2976 0,-1.72862 8.448,-9.01016 10.5655,-9.10671 0.8108,-0.037 3.3958,3.69942 5.7444,8.30308 2.3486,4.60366 6.8642,10.55298 10.0346,13.22071 3.1704,2.66774 6.3533,6.70582 7.073,8.97351 0.9921,3.12568 2.4491,3.83687 6.0228,2.93991 4.9924,-1.25301 11.0673,3.04881 11.0673,7.83712 0,1.46692 2.3118,3.24735 5.1373,3.95651 2.8255,0.70915 5.7139,2.85327 6.4186,4.7647 0.7048,1.91143 2.2568,4.2264 3.4491,5.14437 1.5248,1.1741 1.4761,1.95379 -0.1645,2.62931 -1.2826,0.52815 -4.9192,3.18524 -8.0812,5.90464 -3.162,2.7194 -6.6583,5.08272 -7.7694,5.25182 -6.7513,1.02741 -15.1512,0.44906 -15.1517,-1.04323 -3e-4,-0.96297 -1.818,-1.27561 -4.0392,-0.69474 -2.2212,0.58086 -4.5477,0.23233 -5.17,-0.77452 -1.5085,-2.44084 -15.7287,-2.34924 -18.1951,0.11722 -2.9117,2.9117 -29.9442,8.15366 -42.048,8.15366 -7.806,0 -11.7414,1.06464 -14.9357,4.04062 -2.3854,2.22233 -4.6024,3.95749 -4.9266,3.8559 -0.3243,-0.10159 -3.317,-1.69258 -6.6505,-3.53554 z m 75.7614,-23.55387 c 0,-1.66676 -0.9091,-3.03046 -2.0203,-3.03046 -1.1111,0 -2.0203,-2.72741 -2.0203,-6.06092 0,-6.1918 -2.597,-7.55171 -7.9513,-4.16365 -2.5205,1.59492 -2.5205,2.29565 0,5.34837 2.2347,2.70651 2.3208,3.70811 0.3752,4.36295 -5.6742,1.90974 -2.449,6.57416 4.5457,6.57416 4.9385,0 7.071,-0.91394 7.071,-3.03045 z m -92.934,23.23351 c -1.1894,-2.22234 -3.1357,-4.04062 -4.3251,-4.04062 -1.1895,0 -4.9718,-2.36374 -8.4052,-5.25277 -5.8539,-4.92566 -7.6424,-7.49672 -14.9674,-21.51627 -1.5965,-3.05571 -3.5181,-5.56293 -4.2701,-5.5716 -0.752,-0.009 -2.4895,-2.43272 -3.8611,-5.38679 -1.8326,-3.94675 -1.9009,-6.08553 -0.2577,-8.06546 1.6568,-1.99633 1.5178,-3.56471 -0.5366,-6.05343 -2.1616,-2.6187 -2.2162,-3.54633 -0.2474,-4.20897 3.2713,-1.10102 3.2319,-5.56144 -0.079,-8.95524 -1.4325,-1.46833 -4.4249,-6.30623 -6.6498,-10.75091 -3.2866,-6.56566 -3.7013,-9.59678 -2.2113,-16.16244 3.1506,-13.88354 5.5033,-18.56284 10.7433,-21.36717 3.7392,-2.00119 4.8371,-3.94284 4.1783,-7.38937 -0.4915,-2.57121 -0.2237,-5.08903 0.5953,-5.59515 1.3169,-0.81388 2.1611,2.82411 4.8268,20.80075 1.2165,8.20365 13.6135,13.25691 20.4165,8.32217 1.1111,-0.80602 5.6465,-1.77345 10.0786,-2.14985 7.0132,-0.59561 8.3849,-0.003 10.576,4.5685 2.3153,4.83075 3.616,5.28069 16.1853,5.59895 11.8279,0.29949 14.1471,0.99256 17.2291,5.14889 3.0599,4.12643 4.7671,4.6497 12.1219,3.71554 4.7082,-0.598 9.7187,-2.00318 11.1345,-3.12263 3.6774,-2.90755 5.571,-0.13736 2.4647,3.60553 -2.1684,2.61275 -2.0089,3.58049 0.9463,5.74138 3.2681,2.38971 3.2923,2.86099 0.2998,5.85346 -1.79,1.78998 -3.2545,3.84395 -3.2545,4.56438 0,0.72042 -2.7274,4.03727 -6.0609,7.37078 -3.3335,3.3335 -6.0609,7.35469 -6.0609,8.93596 0,1.58128 -0.8031,2.87505 -1.7847,2.87505 -0.9816,0 -2.2602,1.81828 -2.8413,4.04061 -0.5812,2.22234 -2.7328,4.06953 -4.7813,4.10487 -5.079,0.0876 -10.1662,4.25444 -11.0824,9.07749 -0.511,2.68969 -2.7006,4.21184 -6.7179,4.67015 -3.2778,0.37395 -8.5674,2.87408 -11.7545,5.55584 -3.187,2.68176 -6.6107,4.87592 -7.6081,4.87592 -2.5055,0 -7.9781,11.01785 -7.9781,16.06212 0,5.28273 -3.2585,5.33667 -6.0609,0.10033 z m 15.2966,-53.39378 c 3.3389,-3.33887 3.8041,-7.21538 0.8658,-7.21538 -1.1111,0 -2.0203,-2.27284 -2.0203,-5.05076 0,-6.85548 -4.7797,-6.46358 -9.9639,0.81695 -5.2516,7.37517 -5.2906,10.29473 -0.1376,10.29473 2.2224,0 4.0406,0.90913 4.0406,2.0203 0,2.93821 3.8765,2.47303 7.2154,-0.86584 z"
       style="fill:#999999;fill-opacity:1;stroke:#999999;stroke-width:4;stroke-linejoin:round;stroke-miterlimit:4;stroke-opacity:1;stroke-dasharray:none"
       inkscape:connector-curvature="0" />
  </g>
</svg>
