<?xml version="1.0" encoding="UTF-8" standalone="no"?>
<!-- Created with Inkscape (http://www.inkscape.org/) -->

<svg
   xmlns:dc="http://purl.org/dc/elements/1.1/"
   xmlns:cc="http://creativecommons.org/ns#"
   xmlns:rdf="http://www.w3.org/1999/02/22-rdf-syntax-ns#"
   xmlns:svg="http://www.w3.org/2000/svg"
   xmlns="http://www.w3.org/2000/svg"
   xmlns:sodipodi="http://sodipodi.sourceforge.net/DTD/sodipodi-0.dtd"
   xmlns:inkscape="http://www.inkscape.org/namespaces/inkscape"
   width="247.19701"
   height="451.91559"
   id="region"
   version="1.1"
   inkscape:version="0.48.4 r9939"
   sodipodi:docname="north.svg">
  <defs
     id="defs3058">
    <inkscape:perspective
       sodipodi:type="inkscape:persp3d"
       inkscape:vp_x="0 : 526.18109 : 1"
       inkscape:vp_y="0 : 1000 : 0"
       inkscape:vp_z="744.09448 : 526.18109 : 1"
       inkscape:persp3d-origin="372.04724 : 350.78739 : 1"
       id="perspective3064" />
    <inkscape:perspective
       id="perspective3051"
       inkscape:persp3d-origin="0.5 : 0.33333333 : 1"
       inkscape:vp_z="1 : 0.5 : 1"
       inkscape:vp_y="0 : 1000 : 0"
       inkscape:vp_x="0 : 0.5 : 1"
       sodipodi:type="inkscape:persp3d" />
  </defs>
  <sodipodi:namedview
     id="base"
     pagecolor="#ffffff"
     bordercolor="#666666"
     borderopacity="1.0"
     inkscape:pageopacity="0.0"
     inkscape:pageshadow="2"
     inkscape:zoom="1.4"
     inkscape:cx="212.76667"
     inkscape:cy="226.16324"
     inkscape:document-units="px"
     inkscape:current-layer="layer1"
     showgrid="false"
     inkscape:window-width="1855"
     inkscape:window-height="1056"
     inkscape:window-x="65"
     inkscape:window-y="24"
     inkscape:window-maximized="1"
     fit-margin-top="0"
     fit-margin-left="0"
     fit-margin-right="0"
     fit-margin-bottom="0" />
  <metadata
     id="metadata3061">
    <rdf:RDF>
      <cc:Work
         rdf:about="">
        <dc:format>image/svg+xml</dc:format>
        <dc:type
           rdf:resource="http://purl.org/dc/dcmitype/StillImage" />
        <dc:title />
      </cc:Work>
    </rdf:RDF>
  </metadata>
  <g
     inkscape:groupmode="layer"
     id="layer2"
     inkscape:label="Layer"
     transform="translate(-0.05324599,-0.35485981)"
     sodipodi:insensitive="true">
    <a
       style="fill:#ffffff;fill-opacity:1;display:inline"
       target="_blank"
       id="a3686"
       transform="matrix(1.1344853,0,0,1.1344853,-252.16638,-54.787465)">
      <path
         onmouseout="setAttribute('fill-opacity','1.0')"
         onmouseover="setAttribute('fill-opacity','0.5')"
         id="path3169"
         d="m 281.31533,249.45154 c 0,-5.08257 -1.67762,-7.2597 -5.59408,-7.2597 -5.33379,0 -8.2114,-2.62064 -9.92107,-9.03514 -2.33519,-8.7614 -1.11342,-9.86017 14.56757,-13.10106 2.27624,-0.47045 6.65926,-3.69261 10,-7.35147 3.27117,-3.58266 7.8481,-8.21714 10.17096,-10.29884 2.32286,-2.08171 6.89084,-6.39263 10.15106,-9.57984 3.60808,-3.52727 10.73627,-7.93756 18.21585,-11.27033 l 12.28815,-5.4754 8.03305,7.34176 c 5.72232,5.22987 9.20086,7.34175 12.09285,7.34175 3.35036,0 4.33993,0.8488 5.66286,4.85733 2.11058,6.3951 4.14933,35.0173 2.76962,38.88289 -0.59401,1.66426 -4.20891,4.95115 -8.0331,7.3042 l -6.95309,4.27828 -5.65389,-4.85977 c -9.16628,-7.87885 -10.21713,-8.19161 -12.37812,-3.68402 -1.81631,3.78865 -2.2372,3.91763 -11.289,3.4595 -7.41499,-0.3753 -9.91931,0.0411 -11.84814,1.96991 -1.34519,1.34518 -2.10757,3.32719 -1.69418,4.40445 0.86141,2.24482 -1.39913,2.68373 -2.73015,0.53009 -0.4856,-0.78572 -2.9721,-1.42857 -5.52556,-1.42857 -2.55345,0 -5.89051,-0.94384 -7.41569,-2.09743 -4.4022,-3.32966 -7.30994,-2.56055 -10.63018,2.81171 -3.53129,5.71374 -4.28572,6.11153 -4.28572,2.2597 z"
         style="fill:#ffffff;fill-opacity:1;stroke:#000000;stroke-opacity:1"
         inkscape:connector-curvature="0" />
    </a>
    <a
       style="fill:#ffffff;fill-opacity:1;display:inline"
       target="_blank"
       id="a3683"
       onmouseover="setAttribute('fill-opacity','0.5')"
       onmouseout="setAttribute('fill-opacity','1.0')"
       transform="matrix(1.1344853,0,0,1.1344853,-252.16638,-54.787465)">
      <path
         id="path3131"
         d="m 339.88676,383.99966 c -1.17857,-0.45307 -4.07143,-2.17178 -6.42857,-3.81938 -2.35714,-1.64759 -5.57143,-3.7017 -7.14286,-4.56469 -2.83155,-1.55501 -4.91507,-9.13803 -2.51079,-9.13803 0.68773,0 2.36424,-0.81445 3.72558,-1.80988 2.33586,-1.70802 2.32302,-1.97318 -0.22814,-4.71153 -1.48681,-1.5959 -3.13498,-5.20273 -3.6626,-8.01516 -0.81368,-4.33729 -0.53062,-5.22561 1.8647,-5.852 1.5532,-0.40618 3.25756,-2.46592 3.78746,-4.57721 0.81344,-3.24103 0.15629,-4.50405 -4.22066,-8.11191 -3.03473,-2.50148 -5.19319,-5.56274 -5.20599,-7.38346 -0.012,-1.71066 -0.6253,-4.06463 -1.36282,-5.23106 -0.95502,-1.51041 -0.44181,-3.07786 1.78322,-5.44629 4.37777,-4.65993 11.9166,-9.10126 14.92469,-8.79254 4.89224,0.50208 6.18061,-0.0997 7.79386,-3.64039 1.13761,-2.49679 2.76212,-3.57143 5.39885,-3.57143 2.07438,0 5.53657,-0.80357 7.69375,-1.78572 3.4819,-1.58526 3.82231,-2.33353 3.03266,-6.66608 -0.48922,-2.6842 -2.41804,-6.08272 -4.28626,-7.55226 -2.61039,-2.05334 -3.13304,-3.38482 -2.2576,-5.75137 0.74133,-2.00401 0.37539,-4.41027 -1.04786,-6.89014 -2.03242,-3.54129 -1.93122,-4.40554 1.43155,-12.22541 2.59698,-6.03907 5.25443,-9.57228 9.41284,-12.51481 8.34623,-5.90586 9.47023,-4.47785 8.29547,10.53913 -0.88113,11.26353 -0.63589,13.31337 2.49827,20.88237 1.91142,4.61607 3.89279,12.25 4.40305,16.96429 0.51026,4.71428 1.96828,12.91136 3.24005,18.21572 l 2.31229,9.64429 -8.87731,8.21285 c -7.54597,6.98117 -8.99501,9.11766 -9.66219,14.24609 -0.53884,4.14198 -1.60349,6.29305 -3.3963,6.86207 -4.94007,1.56791 -9.55464,8.82581 -10.61032,16.68813 -1.87625,13.9736 -4.67778,18.11012 -10.69802,15.79581 z"
         style="fill:#ffffff;fill-opacity:1;stroke:#000000;stroke-opacity:1"
         inkscape:connector-curvature="0" />
    </a>
    <a
       style="fill:#ffffff;fill-opacity:1;display:inline"
       id="a2908"
       target="_blank"
       onmouseover="setAttribute('fill-opacity','0.5')"
       onmouseout="setAttribute('fill-opacity','1.0')"
       transform="matrix(1.1344853,0,0,1.1344853,-252.16638,-54.787465)">
      <path
         id="path3147"
         d="m 300.2439,441.33111 c -6.42545,-5.38734 -7.15878,-7.43691 -4.29921,-12.0158 1.41056,-2.25867 1.41056,-3.41684 0,-5.67551 -2.41807,-3.87193 -2.24232,-5.26357 1.08493,-8.59082 4.46593,-4.46592 3.67634,-10.06057 -2.06657,-14.64285 -4.11318,-3.28192 -6.3061,-3.92857 -13.32237,-3.92857 -6.932,0 -8.94119,-0.57742 -11.5049,-3.30636 -1.78784,-1.90307 -3.10616,-5.15604 -3.10616,-7.66449 0,-2.39697 -1.28572,-5.99265 -2.85714,-7.9904 -3.54256,-4.50362 -3.53903,-4.83897 0.16527,-15.72668 2.50582,-7.36509 3.01633,-12.21563 2.98673,-28.37814 -0.0371,-20.25607 -1.04232,-24.64324 -6.00763,-26.21917 -4.09612,-1.30006 -4.09724,-12.11113 -0.002,-14.66895 1.57143,-0.98137 2.85715,-2.68143 2.85715,-3.77792 0,-1.09648 2.89285,-7.4779 6.42857,-14.18093 3.53571,-6.70302 6.42857,-13.51474 6.42857,-15.13714 0,-1.76314 0.92822,-2.94982 2.30733,-2.94982 1.26903,0 4.38437,-2.26761 6.92298,-5.03912 l 4.61565,-5.03912 7.89552,2.05653 c 4.34255,1.13108 9.21072,2.87787 10.81817,3.88174 2.38309,1.48826 3.34311,1.47624 5.20035,-0.0651 1.25275,-1.03969 2.10852,-2.92958 1.90172,-4.19976 -0.31147,-1.91304 1.3404,-2.37625 9.62399,-2.69873 7.95265,-0.3096 10.49228,-0.97592 12.40445,-3.25454 2.38334,-2.8401 2.44915,-2.82598 7.5,1.60872 5.79978,5.09228 5.94401,5.86478 2.81538,15.07994 -2.96849,8.74349 -0.95611,25.05868 3.61627,29.31849 3.68989,3.43766 3.68724,4.3459 -0.0195,6.66078 -2.4083,1.50401 -3.38361,1.51021 -5.16374,0.0328 -1.83146,-1.51998 -2.64038,-1.27094 -4.88806,1.50482 -1.48137,1.82942 -2.6934,4.21928 -2.6934,5.31081 0,1.40144 -1.90002,1.98459 -6.46616,1.98459 -5.77473,0 -7.16518,0.69901 -13.0031,6.53694 -6.36103,6.36102 -6.51047,6.71342 -5.55341,13.09556 1.15155,7.67906 4.03417,12.63291 7.94634,13.65597 4.00449,1.0472 3.43963,5.10692 -0.94237,6.77296 -3.16793,1.20444 -3.5888,2.00998 -2.78043,5.32178 0.52391,2.14638 0.94737,5.16841 0.94104,6.71563 -0.006,1.54722 0.63195,3.21081 1.4184,3.69687 0.88723,0.54834 0.47055,2.55532 -1.09792,5.28823 -2.42253,4.22101 -2.41992,4.63081 0.0628,9.83708 l 2.59062,5.43258 -3.81182,3.27879 c -2.3101,1.98707 -4.04651,5.17091 -4.40752,8.08157 -0.62161,5.01174 0.42809,5.88644 10.45738,8.71404 1.95111,0.55009 3.54287,2.40935 4.05687,4.73865 2.33862,10.5978 3.69859,13.12667 7.48602,13.92028 2.09966,0.43997 5.08302,1.49713 6.62967,2.34923 1.54666,0.85211 4.43952,1.99427 6.42858,2.53811 3.24718,0.88785 2.51892,1.4984 -7.13198,5.97938 -6.62087,3.07411 -11.74404,6.51004 -13.34105,8.94737 -2.35836,3.59931 -3.13889,3.87488 -8.63914,3.05007 -4.83071,-0.72442 -6.7895,-0.32232 -9.74142,1.99966 -2.03219,1.59852 -3.91492,2.89381 -4.18384,2.87844 -0.26893,-0.0154 -3.22111,-2.3187 -6.56039,-5.11849 l -1e-5,0 z"
         style="fill:#ffffff;fill-opacity:1;stroke:#000000;stroke-opacity:1"
         inkscape:connector-curvature="0" />
    </a>
    <a
       style="fill:#ffffff;fill-opacity:1;display:inline"
       target="_blank"
       id="a3677"
       onmouseover="setAttribute('fill-opacity','0.5')"
       onmouseout="setAttribute('fill-opacity','1.0')"
       transform="matrix(1.1344853,0,0,1.1344853,-252.16638,-54.787465)">
      <path
         onmouseout="setAttribute('fill-opacity','1.0')"
         onmouseover="setAttribute('fill-opacity','0.5')"
         transform="translate(-6,-10)"
         d="m 445.71429,370.21933 a 15.714286,15 0 1 1 -31.42858,0 15.714286,15 0 1 1 31.42858,0 z"
         sodipodi:ry="15"
         sodipodi:rx="15.714286"
         sodipodi:cy="370.21933"
         sodipodi:cx="430"
         id="path4015"
         style="fill:#ffffff;fill-opacity:1;stroke:#000000;stroke-opacity:1"
         sodipodi:type="arc" />
    </a>
    <a
       style="fill:#ffffff;fill-opacity:1;display:inline"
       target="_blank"
       id="a3674"
       transform="matrix(1.1344853,0,0,1.1344853,-252.16638,-54.787465)">
      <path
         onmouseout="setAttribute('fill-opacity','1.0')"
         onmouseover="setAttribute('fill-opacity','0.5')"
         id="path3157"
         d="m 348.61813,177.54898 c -7.72422,-8.01775 -18.75954,-23.70144 -30.87423,-43.87931 -3.8905,-6.4799 -4.77016,-7.14064 -9.53917,-7.16513 -3.88235,-0.0199 -5.98665,-0.9591 -8.06274,-3.59841 -1.54511,-1.96429 -3.68105,-3.57567 -4.74654,-3.58085 -1.0655,-0.005 -3.77647,-1.22197 -6.02439,-2.704 l -4.08714,-2.69458 6.24299,-3.65863 c 3.43364,-2.01225 8.45253,-5.93831 11.15308,-8.72458 2.70056,-2.786262 5.71034,-5.065935 6.68841,-5.065935 3.01214,0 3.58512,-2.588877 1.49256,-6.74376 -1.09984,-2.18379 -2.36524,-6.343185 -2.81199,-9.243102 -0.65454,-4.248719 -0.40594,-5.116649 1.28025,-4.469598 1.15089,0.441638 3.22066,-0.217971 4.5995,-1.465797 2.31927,-2.09891 3.07924,-1.817747 10.15051,3.755312 7.56457,5.961847 7.64811,6.112648 8.0854,14.595516 0.26114,5.065815 1.63849,10.885974 3.3677,14.230634 1.60922,3.11256 2.92586,7.32695 2.92586,9.36531 0,2.03836 1.60714,5.88447 3.57143,8.54691 1.96428,2.66244 3.58652,5.84091 3.60497,7.06326 0.0184,1.22235 5.76289,8.61617 12.76542,16.43071 16.308,18.19905 17.08181,19.61805 13.7624,25.23736 -1.40591,2.38001 -2.2226,5.60296 -1.81487,7.16211 0.54222,2.07348 -0.21241,3.19742 -2.80987,4.18498 -7.23929,2.75237 -10.05263,1.62545 -18.91954,-7.57842 z"
         style="fill:#ffffff;fill-opacity:1;stroke:#000000;stroke-opacity:1"
         inkscape:connector-curvature="0" />
    </a>
    <a
       style="fill:#ffffff;fill-opacity:1;display:inline"
       target="_blank"
       id="a3671"
       transform="matrix(1.1344853,0,0,1.1344853,-252.16638,-54.787465)">
      <path
         onmouseout="setAttribute('fill-opacity','1.0')"
         onmouseover="setAttribute('fill-opacity','0.5')"
         id="path3133"
         d="m 305.10884,177.54898 c -2.85034,-4.125 -6.31636,-9.07673 -7.70226,-11.00386 -1.78929,-2.48805 -2.51982,-6.19472 -2.51982,-12.78553 0,-9.03241 -0.13427,-9.36947 -5,-12.55149 -13.96749,-9.13425 -21.42857,-15.27342 -21.42857,-17.63196 0,-1.4168 1.30394,-5.61798 2.89765,-9.33595 3.58972,-8.37447 1.98659,-15.212438 -4.33258,-18.480211 -5.57431,-2.882587 -10.13328,-9.725113 -11.05422,-16.591191 -0.98346,-7.332283 -5.38437,-10.553004 -12.78007,-9.352849 -2.86763,0.465353 -5.58733,1.351017 -6.04376,1.968142 -0.45643,0.617125 -2.2047,1.165395 -3.88505,1.21838 -2.856,0.09005 -3.0073,-0.431466 -2.32102,-7.99992 l 0.73414,-8.096253 -4.46469,-0.892938 c -4.4322,-0.88644 -5.46859,-2.885637 -3.28164,-6.330294 0.83543,-1.315884 2.7147,-0.446009 7.04605,3.261473 9.46574,8.102316 16.85552,10.774526 24.98952,9.036427 6.47089,-1.382721 7.05842,-1.238356 12.5,3.071455 3.14047,2.487304 5.70996,5.0947 5.70996,5.794214 0,2.753609 8.91665,5.905123 14.11726,4.989629 11.97042,-2.107222 13.5465,-1.812192 14.87335,2.784158 0.68045,2.357143 1.81144,6.155567 2.51331,8.440942 1.1224,3.654624 0.64057,4.859382 -3.99934,10 -2.90151,3.214626 -8.50917,7.779886 -12.46146,10.145016 -9.51664,5.69497 -9.45122,8.61073 0.3013,13.42912 4.11801,2.03456 7.49301,4.434 7.5,5.33208 0.0161,2.06286 3.35703,3.36713 8.62508,3.36713 3.68305,0 5.53133,2.1418 18.45459,21.38526 7.89889,11.7619 14.36162,21.63295 14.36162,21.93567 0,0.76294 -25.17668,12.39335 -26.82824,12.39335 -0.73627,0 -3.67077,-3.375 -6.52111,-7.5 z"
         style="fill:#ffffff;fill-opacity:1;stroke:#000000;stroke-opacity:1"
         inkscape:connector-curvature="0" />
    </a>
  </g>
  <g
     inkscape:label="Layer 1"
     inkscape:groupmode="layer"
     id="layer1"
     transform="translate(-88.248917,-367.23929)"
     sodipodi:insensitive="true"
     style="display:inline;opacity:0">
    <path
       d="m 179.18411,815.49032 c -8.15076,-5.49103 -10.04186,-8.76609 -8.06466,-13.96656 1.1077,-2.91358 0.9377,-6.90174 -0.4511,-10.58106 -1.9314,-5.11689 -1.6298,-6.50401 2.25956,-10.39342 5.1161,-5.1161 4.6142,-9.46056 -1.03066,-8.92215 -2.1018,0.20041 -4.5493,-0.93595 -5.4388,-2.52538 -1.0638,-1.90091 -5.0488,-2.88989 -11.6446,-2.88989 -9.8419,0 -10.0992,-0.15879 -13.9049,-8.58629 -2.1325,-4.72247 -4.3878,-9.95001 -5.0116,-11.61676 -0.6238,-1.66675 -2.2063,-4.51758 -3.5166,-6.33519 -1.8648,-2.58688 -1.6335,-5.68526 1.0648,-14.26378 2.6254,-8.34707 3.3106,-16.70831 2.8745,-35.08106 l -0.5725,-24.12202 -5.7146,-0.6546 c -4.1269,-0.47271 -5.3899,-1.50094 -4.5457,-3.70075 0.6429,-1.6754 1.1689,-7.16023 1.1689,-12.18848 0,-7.29644 0.6119,-8.90749 3.0305,-7.97938 1.9345,0.74234 3.0304,-0.0351 3.0304,-2.15015 0,-1.82219 1.262,-4.74834 2.8044,-6.50259 1.5424,-1.75426 5.332,-8.0729 8.4212,-14.04145 4.4849,-8.6648 5.1455,-11.51503 3.2778,-14.14213 -5.2283,-7.35396 -10.4628,-18.52261 -10.4628,-22.32395 0,-2.22331 -1.9162,-5.82763 -4.2582,-8.00958 l -4.2583,-3.96721 8.0273,-4.09526 c 4.4151,-2.2524 12.0701,-5.11322 17.0111,-6.35738 7.1324,-1.79596 11.2739,-4.83439 20.09726,-14.74467 6.1124,-6.8654 11.6976,-14.04289 12.4115,-15.94996 0.8675,-2.3177 -1.4982,-7.00471 -7.1348,-14.13563 -7.37706,-9.33264 -8.52976,-12.1866 -9.20756,-22.79656 -0.7668,-12.00118 -0.8818,-12.20248 -10.9718,-19.19941 -5.6083,-3.88908 -11.8998,-7.73108 -13.9811,-8.53776 -5.8443,-2.26509 -6.726,-7.4487 -3.0348,-17.84152 4.6653,-13.13525 4.3697,-14.81319 -3.6925,-20.96255 -8.0629,-6.14982 -13.1299,-14.73969 -13.1299,-22.25837 0,-4.41121 -0.8977,-5.15109 -6.25,-5.15109 -4.551,0 -6.5374,1.09844 -7.3067,4.04061 -1.2633,4.83055 -0.414,4.7502 -9.6074,0.90895 -5.320698,-2.22314 -7.148098,-4.03591 -6.298998,-6.2486 3.935599,-10.25614 3.656799,-12.7691 -1.6402,-14.78303 -6.0433,-2.29767 -7.2199,-10.08268 -2.1587,-14.28313 2.5873,-2.14724 4.0155,-1.72781 8.586299,2.52154 10.451099,9.71617 16.360299,12.33035 27.018899,11.9531 11.0852,-0.39235 20.8071,4.14519 25.5807,11.93935 2.2143,3.61556 3.9381,4.15991 10.1015,3.1899 4.0873,-0.64328 13.79546,-1.42446 21.57366,-1.73595 13.1461,-0.52646 14.7993,-0.10276 23.4747,6.01622 5.133,3.62041 10.3605,6.58256 11.6168,6.58256 2.8259,0 3.0013,3.35888 0.2638,5.05076 -2.9707,1.83601 -2.3259,15.3774 1.0101,21.21321 1.588,2.77791 2.9195,7.04822 2.9589,9.48955 0.1192,7.39031 9.3938,22.54481 25.0977,41.00891 16.138,18.97451 19.3999,25.07353 14.4301,26.98063 -1.6999,0.6523 -3.0907,3.37606 -3.0907,6.0528 0,2.67673 -1.3842,6.0156 -3.0761,7.4197 -1.9844,1.64696 -2.5844,4.06484 -1.6905,6.81337 2.2817,7.01593 2.9522,16.6382 3.7739,54.16062 0.6043,27.59819 1.5182,37.17961 4.0045,41.98769 3.1144,6.02259 6.2976,22.53239 8.3819,43.47259 0.9917,9.96438 0.8801,10.20575 -8.2246,17.77822 -6.6152,5.50189 -9.23,9.16151 -9.23,12.91787 0,3.47935 -2.4117,7.35055 -7.1742,11.5162 -5.5875,4.88718 -7.8057,8.95603 -10.0296,18.39686 -1.5704,6.66701 -2.8877,14.76285 -2.9273,17.99079 -0.068,5.55673 -0.2685,5.69108 -3.7666,2.52539 -2.032,-1.83899 -5.0914,-3.34359 -6.7986,-3.34359 -1.7072,0 -5.4229,-1.82401 -8.257,-4.05338 l -5.1531,-4.05338 -6.2311,5.24312 c -8.4466,7.10735 -8.0404,12.0852 1.3451,16.4848 6.3016,2.95401 7.8939,4.98452 9.4653,12.07048 2.075,9.35678 7.5003,12.69416 20.6357,12.69416 3.7232,0 6.7695,0.38022 6.7695,0.84491 0,4.23773 -4.3518,8.03562 -15.3437,13.39048 -7.1228,3.47002 -14.1151,7.97172 -15.5384,10.0038 -1.804,2.57549 -5.0155,3.65253 -10.6016,3.55552 -4.4076,-0.0766 -9.832,0.4913 -12.0543,1.26188 -2.4887,0.86295 -5.9806,0.0941 -9.0914,-2.00149 l 0,0 z"
       id="regionpath"
       style="fill:#999999;fill-opacity:1;stroke:#999999;stroke-width:4;stroke-miterlimit:4;stroke-opacity:1;stroke-dasharray:none"
       inkscape:connector-curvature="0" />
  </g>
</svg>
