<?xml version="1.0" encoding="UTF-8" standalone="no"?>
<!-- Created with Inkscape (http://www.inkscape.org/) -->

<svg
   xmlns:dc="http://purl.org/dc/elements/1.1/"
   xmlns:cc="http://creativecommons.org/ns#"
   xmlns:rdf="http://www.w3.org/1999/02/22-rdf-syntax-ns#"
   xmlns:svg="http://www.w3.org/2000/svg"
   xmlns="http://www.w3.org/2000/svg"
   xmlns:sodipodi="http://sodipodi.sourceforge.net/DTD/sodipodi-0.dtd"
   xmlns:inkscape="http://www.inkscape.org/namespaces/inkscape"
   width="223.42336"
   height="493.72647"
   id="region"
   version="1.1"
   inkscape:version="0.48.4 r9939"
   sodipodi:docname="south.svg">
  <defs
     id="defs3005">
    <inkscape:perspective
       sodipodi:type="inkscape:persp3d"
       inkscape:vp_x="0 : 526.18109 : 1"
       inkscape:vp_y="0 : 1000 : 0"
       inkscape:vp_z="744.09448 : 526.18109 : 1"
       inkscape:persp3d-origin="372.04724 : 350.78739 : 1"
       id="perspective3011" />
    <inkscape:perspective
       id="perspective2998"
       inkscape:persp3d-origin="0.5 : 0.33333333 : 1"
       inkscape:vp_z="1 : 0.5 : 1"
       inkscape:vp_y="0 : 1000 : 0"
       inkscape:vp_x="0 : 0.5 : 1"
       sodipodi:type="inkscape:persp3d" />
  </defs>
  <sodipodi:namedview
     id="base"
     pagecolor="#ffffff"
     bordercolor="#666666"
     borderopacity="1.0"
     inkscape:pageopacity="0.0"
     inkscape:pageshadow="2"
     inkscape:zoom="1.4"
     inkscape:cx="173.00522"
     inkscape:cy="247.98338"
     inkscape:document-units="px"
     inkscape:current-layer="layer1"
     showgrid="false"
     inkscape:window-width="1855"
     inkscape:window-height="1056"
     inkscape:window-x="65"
     inkscape:window-y="24"
     inkscape:window-maximized="1" />
  <metadata
     id="metadata3008">
    <rdf:RDF>
      <cc:Work
         rdf:about="">
        <dc:format>image/svg+xml</dc:format>
        <dc:type
           rdf:resource="http://purl.org/dc/dcmitype/StillImage" />
        <dc:title />
      </cc:Work>
    </rdf:RDF>
  </metadata>
  <g
     inkscape:groupmode="layer"
     id="layer2"
     inkscape:label="Layer"
     sodipodi:insensitive="true">
    <a
       style="fill:#ffffff;fill-opacity:1;display:inline"
       target="_blank"
       id="a3724"
       transform="matrix(1.1478389,0,0,1.1478389,-434.24061,-622.05032)">
      <path
         onmouseout="setAttribute('fill-opacity','1.0')"
         onmouseover="setAttribute('fill-opacity','0.5')"
         id="path3163"
         d="m 489.88676,882.80507 c -5.17691,-2.78767 -31.42857,-34.02997 -31.42857,-37.40338 0,-3.83377 7.50415,-13.20985 10.5725,-13.20985 1.67749,0 5.4151,-1.60714 8.3058,-3.57143 2.89071,-1.96428 5.8807,-3.57143 6.64442,-3.57143 2.39503,0 10.17307,4.93004 10.18253,6.4541 0.005,0.79975 1.62929,3.83851 3.60959,6.75279 4.89493,7.20352 5.89625,13.02518 3.00049,17.44467 -1.27647,1.94814 -2.30094,5.65208 -2.2766,8.23097 0.0741,7.85138 -2.09458,20.15818 -3.61016,20.48688 -0.78571,0.1704 -3.03571,-0.55559 -5,-1.61332 z"
         style="fill:#ffffff;fill-opacity:1;stroke:#000000;stroke-opacity:1;display:inline"
         inkscape:connector-curvature="0" />
    </a>
    <a
       style="fill:#ffffff;fill-opacity:1;display:inline"
       target="_blank"
       id="a3721"
       transform="matrix(1.1478389,0,0,1.1478389,-434.24061,-622.05032)">
      <path
         onmouseout="setAttribute('fill-opacity','1.0')"
         onmouseover="setAttribute('fill-opacity','0.5')"
         id="path3129"
         d="m 500.2439,796.52105 c -1.76785,-1.65657 -3.21428,-3.6641 -3.21428,-4.46119 0,-3.17333 -7.96129,-11.29651 -11.07143,-11.29655 -2.26189,-3e-5 -3.21429,-0.84661 -3.21429,-2.85718 0,-1.57143 -0.94946,-2.85715 -2.10992,-2.85715 -1.16046,0 -3.20771,-1.76785 -4.54945,-3.92857 -1.34175,-2.16071 -3.64426,-5.29584 -5.11671,-6.96696 -2.64151,-2.99791 -2.62883,-3.05053 0.95182,-3.94921 1.99596,-0.50095 5.90647,-2.91046 8.69004,-5.35447 4.55236,-3.99702 5.99373,-4.44364 14.34086,-4.44364 6.89032,0 9.59843,-0.5693 10.51712,-2.21091 1.10978,-1.98308 2.05173,-1.95473 9.141,0.27512 7.23787,2.27659 8.26854,2.29737 12.23425,0.24662 2.3818,-1.23167 7.49005,-2.2394 11.35168,-2.2394 4.96489,0 8.13582,-0.87681 10.82723,-2.99387 6.78358,-5.33597 10.0028,-1.21305 14.50346,18.57483 1.83739,8.07838 1.96435,10.6891 0.59978,12.33332 -2.32915,2.80645 -10.18681,2.63829 -15.35637,-0.32863 -4.20157,-2.41137 -4.2124,-2.40793 -8.77518,2.7888 -2.51264,2.86173 -5.70038,5.56241 -7.08388,6.00152 -1.38349,0.4391 -4.67236,3.67706 -7.30858,7.19545 -5.11949,6.83265 -5.81133,7.2108 -15.71429,8.5892 -5.33381,0.74242 -6.97595,0.38188 -9.64286,-2.11713 l 0,0 z"
         style="fill:#ffffff;fill-opacity:1;stroke:#000000;stroke-opacity:1"
         inkscape:connector-curvature="0" />
    </a>
    <a
       style="fill:#ffffff;fill-opacity:1;display:inline"
       target="_blank"
       id="a3718"
       transform="matrix(1.1478389,0,0,1.1478389,-434.24061,-622.05032)">
      <path
         onmouseout="setAttribute('fill-opacity','0.5')"
         onmouseover="setAttribute('fill-opacity','0.5')"
         id="path3165"
         d="m 557.75568,826.51467 c -2.19038,-6.90127 -15.31946,-11.25892 -19.33698,-6.4181 -1.61034,1.94034 -2.21966,1.818 -5.33637,-1.07143 -3.35007,-3.10576 -3.47658,-3.82022 -2.64353,-14.92864 1.02377,-13.65166 1.67803,-15.79881 5.14987,-16.90073 1.41945,-0.45052 4.26358,-2.50189 6.3203,-4.5586 3.14378,-3.14378 4.26404,-3.50048 7.03234,-2.23916 1.81107,0.82518 6.21611,1.17083 9.78898,0.76812 l 6.49612,-0.73221 -1.08013,6.95039 c -0.59407,3.82271 -1.5451,14.82539 -2.1134,24.45039 -0.9794,16.58757 -2.26802,21.01032 -4.2772,14.67997 z"
         style="fill:#ffffff;fill-opacity:1;stroke:#000000;stroke-opacity:1"
         inkscape:connector-curvature="0" />
    </a>
    <a
       style="fill:#ffffff;fill-opacity:1;display:inline"
       target="_blank"
       id="a3715"
       transform="matrix(1.1478389,0,0,1.1478389,-434.24061,-622.05032)">
      <path
         onmouseout="setAttribute('fill-opacity','1.0')"
         onmouseover="setAttribute('fill-opacity','0.5')"
         id="path3159"
         d="m 482.38676,971.20709 c -1.375,-0.35932 -2.5,-1.49175 -2.5,-2.5165 0,-1.02476 -0.99904,-2.69232 -2.22009,-3.70571 -1.93485,-1.60578 -1.39671,-2.355 4.18847,-5.8313 l 6.40857,-3.98879 -0.81062,-8.27219 c -0.44585,-4.5497 -1.41871,-9.04398 -2.16193,-9.98728 -0.74322,-0.9433 -4.65834,-1.90758 -8.70028,-2.14286 -6.19628,-0.36067 -7.62673,-0.98794 -9.11977,-3.99919 -0.97393,-1.96429 -3.23955,-3.91921 -5.03471,-4.34428 -4.74569,-1.12371 -5.0226,-6.33412 -0.49431,-9.30117 2.01243,-1.31859 3.65896,-3.17327 3.65896,-4.12151 0,-0.94824 1.91015,-4.2493 4.24479,-7.3357 2.33463,-3.08639 5.61468,-9.6696 7.289,-14.62935 2.72492,-8.07193 3.29108,-8.81463 5.39806,-7.08125 1.29462,1.06507 4.19957,2.86263 6.45543,3.99457 6.27187,3.1471 6.08468,5.20662 -1.07961,11.87831 -8.81452,8.20847 -8.64461,11.01434 1.21962,20.14052 9.53525,8.82181 11.36069,14.69181 8.15027,26.20865 -1.56572,5.61677 -1.71235,8.36198 -0.57229,10.71429 0.84303,1.73945 1.84234,5.89478 2.22068,9.23406 l 0.68789,6.07143 -7.36407,-0.16571 c -4.05023,-0.0911 -8.48906,-0.45971 -9.86406,-0.81904 z"
         style="fill:#ffffff;fill-opacity:1;stroke:#000000;stroke-opacity:1"
         inkscape:connector-curvature="0" />
    </a>
    <a
       style="fill:#ffffff;fill-opacity:1;display:inline"
       target="_blank"
       id="a3712"
       transform="matrix(1.1478389,0,0,1.1478389,-434.24061,-622.05032)">
      <path
         onmouseout="setAttribute('fill-opacity','1.0')"
         onmouseover="setAttribute('fill-opacity','0.5')"
         id="path3153"
         d="m 401.76733,812.37666 c -3.28712,-1.30683 -6.38884,-2.78833 -6.89273,-3.29222 -0.50388,-0.50388 0.84893,-3.58338 3.00626,-6.84332 3.52959,-5.33358 3.89471,-7.05282 3.64585,-17.16732 -0.25105,-10.20324 -0.006,-11.32588 2.65123,-12.16941 1.61029,-0.51108 4.00626,-2.64834 5.32438,-4.74947 1.31812,-2.10112 4.51528,-6.23279 7.1048,-9.18148 2.58952,-2.94869 4.70821,-6.39338 4.70821,-7.65487 0,-1.6548 0.89523,-2.0787 3.21429,-1.52199 1.76786,0.42439 5.71416,1.22521 8.76956,1.7796 4.42938,0.80369 5.87703,1.87063 7.14286,5.26441 1.58675,4.25421 1.59244,4.25601 10.87329,3.43758 7.72196,-0.68096 8.76462,-0.52863 6.19142,0.90455 -3.90026,2.1723 -8.31921,7.79424 -9.77573,12.43699 -0.61611,1.9639 -3.68989,5.91966 -6.83062,8.79057 -6.21902,5.68474 -8.57781,12.9171 -8.43182,25.85299 l 0.0766,6.78571 -12.40063,-0.14812 c -7.89692,-0.0943 -14.57124,-1.01108 -18.37721,-2.5242 z"
         style="fill:#ffffff;fill-opacity:1;stroke:#000000;stroke-opacity:1"
         inkscape:connector-curvature="0" />
    </a>
    <a
       style="fill:#ffffff;fill-opacity:1;display:inline"
       target="_blank"
       id="a3709"
       transform="matrix(1.1478389,0,0,1.1478389,-434.24061,-622.05032)">
      <path
         onmouseout="setAttribute('fill-opacity','1.0')"
         onmouseover="setAttribute('fill-opacity','0.5')"
         id="path3151"
         d="m 506.24334,851.8347 c -0.0396,-3.33929 -0.29909,-14.62826 -0.57665,-25.08661 -0.5816,-21.91399 -0.24989,-22.6694 10.85614,-24.72311 3.81445,-0.70536 7.78012,-2.4028 8.8126,-3.77209 1.5875,-2.10536 1.72581,-1.12412 0.89612,6.35751 -1.28183,11.55873 -0.21464,15.23504 5.74131,19.77786 5.15267,3.93013 10.77104,3.85198 10.77104,-0.14983 0,-2.47365 1.98627,-2.60385 6.16535,-0.40415 3.98842,2.09934 5.21413,3.98491 5.24135,8.06304 0.0155,2.32236 0.75012,3.15464 2.52188,2.85715 1.79333,-0.30112 2.62705,0.68327 2.94949,3.4825 0.39003,3.38601 -0.36595,4.26565 -5.71429,6.64901 -17.29794,7.7084 -22.46157,8.70576 -34.02133,6.5713 -4.19548,-0.77468 -5.55786,-0.32994 -8.46331,2.76277 -1.90459,2.02734 -3.83297,3.68608 -4.2853,3.68608 -0.45232,0 -0.8548,-2.73215 -0.8944,-6.07143 z"
         style="fill:#ffffff;fill-opacity:1;stroke:#000000;stroke-opacity:1"
         inkscape:connector-curvature="0" />
    </a>
    <a
       style="fill:#ffffff;fill-opacity:1;display:inline"
       target="_blank"
       id="a3704"
       transform="matrix(1.1478389,0,0,1.1478389,-434.24061,-622.05032)">
      <g
         onmouseout="setAttribute('fill-opacity','1.0')"
         onmouseover="setAttribute('fill-opacity','0.5')"
         style="fill:#ffffff;fill-opacity:1;stroke:#000000;stroke-opacity:1"
         id="g3182">
        <path
           style="fill:#ffffff;fill-opacity:1;stroke:#000000;stroke-opacity:1"
           d="m 514.88676,691.17064 c -1.57143,-0.37937 -4.63079,-2.60082 -6.79859,-4.93655 -4.43136,-4.77465 -8.08401,-4.82691 -10.41619,-0.14902 -1.45815,2.92476 -1.79881,2.99495 -4.69399,0.96708 -2.8583,-2.00202 -3.43809,-1.9377 -6.87056,0.76229 -2.85476,2.24555 -5.82188,2.94883 -12.44106,2.94883 l -8.69223,0 -11.11512,-11.31083 c -8.76069,-8.91495 -11.11512,-12.19668 -11.11512,-15.49288 0,-2.30012 -1.17452,-5.24497 -2.61004,-6.5441 -1.7491,-1.58291 -2.4104,-3.72236 -2.0048,-6.48593 0.33289,-2.26812 -0.13534,-5.50768 -1.04052,-7.19902 -2.26598,-4.23402 -0.6463,-8.30441 4.32803,-10.87674 3.65452,-1.88982 4.18448,-2.95133 4.18448,-8.38151 0,-4.84339 0.70288,-6.68434 3.18012,-8.32916 2.83565,-1.8828 2.99039,-2.52793 1.42857,-5.95575 -0.96335,-2.11433 -1.75155,-4.85698 -1.75155,-6.09479 0,-4.64952 4.29232,1.25371 6.54436,9.00046 1.2264,4.21864 2.94551,7.67025 3.82026,7.67025 4.65948,0 14.22833,6.42359 16.71676,11.222 3.27004,6.30558 16.38644,20.20657 19.06608,20.20657 2.65632,0 8.13825,-6.08335 8.13825,-9.03111 0,-1.33012 -1.58008,-5.46726 -3.51129,-9.19364 -6.1555,-11.87738 -9.34585,-20.07979 -9.34585,-24.02825 0,-2.11108 -1.21637,-5.84278 -2.70304,-8.29266 -1.48667,-2.44989 -3.16371,-6.70434 -3.72675,-9.45434 -0.56305,-2.75 -2.30428,-8.02005 -3.86941,-11.71123 -1.56513,-3.69117 -2.62024,-7.36059 -2.34468,-8.15425 0.27557,-0.79366 4.78971,3.83353 10.03143,10.28266 5.24173,6.44912 14.16618,16.86854 19.83212,23.15425 5.66595,6.28571 13.64907,16.57143 17.74027,22.85714 4.09121,6.28572 12.41819,17.53572 18.5044,25 6.35154,7.78969 10.25302,13.6849 9.1579,13.83779 -1.04937,0.14649 -5.04224,0.68013 -8.87303,1.18585 -7.91619,1.04507 -13.74921,5.73711 -13.74921,11.05976 0,1.92087 -2.01461,5.30876 -4.71087,7.92208 -4.774,4.62715 -5.19906,4.77359 -10.28913,3.54475 l 0,0 z"
           id="path3127"
           inkscape:connector-curvature="0" />
        <path
           style="fill:#ffffff;fill-opacity:1;stroke:#000000;stroke-opacity:1"
           d="m 450.49974,563.15725 c -0.48229,-1.25682 -0.33537,-6.26428 0.32649,-11.1277 l 1.20339,-8.84256 8.38992,9.56488 c 4.61446,5.26069 8.05714,9.89767 7.6504,10.30441 -0.40674,0.40674 -4.32913,1.11 -8.71642,1.56281 -6.50037,0.6709 -8.13921,0.40031 -8.85378,-1.46184 l 0,0 z"
           id="path3171"
           inkscape:connector-curvature="0" />
      </g>
    </a>
    <a
       style="fill:#ffffff;fill-opacity:1;display:inline"
       target="_blank"
       id="a3701"
       transform="matrix(1.1478389,0,0,1.1478389,-434.24061,-622.05032)">
      <path
         onmouseout="setAttribute('fill-opacity','1.0')"
         onmouseover="setAttribute('fill-opacity','0.5')"
         id="path3143"
         d="m 490.95819,745.45682 c -3.04582,-0.75212 -3.04207,-0.48668 -0.13417,-9.50182 3.48742,-10.81179 4.09485,-12.41477 7.43999,-19.63392 2.27523,-4.91016 3.05132,-9.36122 3.05132,-17.5 0,-6.00322 0.44697,-10.91495 0.99326,-10.91495 0.54629,0 2.74743,1.6806 4.89142,3.73467 2.57693,2.46886 6.03026,3.97499 10.18875,4.44371 5.9726,0.6732 6.5519,0.40377 11.45962,-5.3298 2.84297,-3.32137 5.36464,-7.34583 5.60371,-8.94325 0.68256,-4.56075 6.80286,-7.8974 16.37002,-8.92457 l 8.79249,-0.94399 3.70751,5.45609 c 3.24563,4.77638 3.70751,6.91481 3.70751,17.16529 0,8.48868 0.58771,12.29691 2.13681,13.846 2.48853,2.48854 2.11965,3.63387 -5.47405,16.99585 -4.45582,7.84052 -6.14246,9.64285 -9.02389,9.64285 -1.94908,0 -5.65086,1.60715 -8.22618,3.57143 -2.86692,2.18671 -6.56871,3.57452 -9.54754,3.5794 -2.67583,0.004 -7.30762,0.68622 -10.29286,1.5152 -3.87016,1.07472 -7.64246,1.04746 -13.1456,-0.095 -4.85228,-1.00734 -8.67163,-1.11288 -10.28658,-0.28426 -3.63574,1.86548 -9.27789,2.84548 -12.21154,2.12105 z"
         style="fill:#ffffff;fill-opacity:1;stroke:#000000;stroke-opacity:1"
         inkscape:connector-curvature="0" />
    </a>
    <a
       style="fill:#ffffff;fill-opacity:1;display:inline"
       target="_blank"
       id="a3698"
       transform="matrix(1.1478389,0,0,1.1478389,-434.24061,-622.05032)">
      <path
         onmouseout="setAttribute('fill-opacity','1.0')"
         onmouseover="setAttribute('fill-opacity','0.5')"
         id="path3173"
         d="m 499.37346,830.69677 c -0.63624,-3.18123 -2.02956,-4.75629 -5.17857,-5.85404 -2.36947,-0.826 -4.30813,-2.08179 -4.30813,-2.79064 0,-0.70885 -1.60714,-1.28882 -3.57143,-1.28882 -3.45713,0 -3.57143,-0.3089 -3.57143,-9.65229 0,-5.30876 -0.62153,-11.81944 -1.38118,-14.46818 -1.48333,-5.1721 0.10721,-10.18526 3.21716,-10.13998 0.9545,0.0139 3.3426,1.96558 5.30688,4.33707 1.96429,2.37148 5.09115,5.99834 6.94858,8.05967 3.05164,3.38664 3.42587,5.30935 3.88273,19.94865 0.27807,8.91043 0.28514,16.20077 0.0157,16.20077 -0.26943,0 -0.88157,-1.95849 -1.36032,-4.35221 z"
         style="fill:#ffffff;fill-opacity:1;stroke:#000000;stroke-opacity:1"
         inkscape:connector-curvature="0" />
    </a>
    <a
       style="fill:#ffffff;fill-opacity:1;display:inline"
       target="_blank"
       id="a3695"
       transform="matrix(1.1478389,0,0,1.1478389,-434.24061,-622.05032)">
      <path
         onmouseout="setAttribute('fill-opacity','1.0')"
         onmouseover="setAttribute('fill-opacity','0.5')"
         id="path3135"
         d="m 451.31533,916.04244 c 0,-1.02503 -2.25,-4.32012 -5,-7.32242 -2.75,-3.0023 -5,-6.00772 -5,-6.6787 0,-0.67099 -2.57143,-2.53183 -5.71428,-4.13519 -3.14286,-1.60337 -5.71429,-3.49257 -5.71429,-4.19824 0,-0.70566 -2.1081,-2.5859 -4.68468,-4.17831 -2.72989,-1.68717 -5.44441,-4.99631 -6.5054,-7.93041 -2.14228,-5.92438 -7.8267,-10.8359 -12.54107,-10.8359 -6.63014,0 -9.38005,-8.46238 -6.96805,-21.44296 0.78765,-4.23886 0.23587,-5.89594 -3.56774,-10.71429 -2.47472,-3.13494 -7.02705,-7.2116 -10.11628,-9.05924 -6.43404,-3.84814 -7.07208,-7.01295 -2.66236,-13.20584 3.59206,-5.04457 5.14029,-5.10741 16.25749,-0.65983 6.98361,2.79388 12.70002,3.71917 28.68351,4.64286 16.37104,0.94608 19.93867,1.53904 19.83357,3.29644 -0.0705,1.17857 -0.56023,4.875 -1.08831,8.21429 -0.77315,4.88893 -0.53952,6.07143 1.19958,6.07143 1.18786,0 2.15974,0.61431 2.15974,1.36513 0,2.92704 16.12046,25.99673 22.47951,32.17001 4.13205,4.01134 4.47212,4.93318 3.20591,8.69038 -0.77905,2.31168 -2.06794,6.8892 -2.86419,10.17228 -0.79626,3.28308 -3.68535,8.64748 -6.4202,11.92088 -2.73485,3.2734 -4.97246,6.80845 -4.97246,7.85565 0,1.96215 -6.56664,7.82567 -8.76408,7.82567 -0.67975,0 -1.23592,-0.83866 -1.23592,-1.86369 z"
         style="fill:#ffffff;fill-opacity:1;stroke:#000000;stroke-opacity:1"
         inkscape:connector-curvature="0" />
    </a>
    <a
       style="fill:#ffffff;fill-opacity:1;display:inline"
       target="_blank"
       id="a3692"
       transform="matrix(1.1478389,0,0,1.1478389,-434.24061,-622.05032)">
      <path
         onmouseout="setAttribute('fill-opacity','1.0')"
         onmouseover="setAttribute('fill-opacity','0.5')"
         id="path3141"
         d="m 453.7013,834.94579 c -1.69348,-1.97785 -2.05578,-4.40524 -1.43713,-9.62878 0.82441,-6.96087 0.81165,-6.98736 -3.81083,-7.91185 -2.5509,-0.51018 -6.08263,-0.9276 -7.84828,-0.9276 -2.6559,0 -3.3727,-1.01575 -4.15084,-5.88199 -0.73595,-4.60238 -0.42097,-6.26193 1.44787,-7.62846 1.79277,-1.3109 2.16093,-2.96144 1.4762,-6.61801 -0.81269,-4.33991 -0.31294,-5.43558 4.57931,-10.03995 3.02036,-2.84263 6.8875,-7.98549 8.59365,-11.42858 5.25775,-10.61039 6.77759,-12.04155 10.60974,-9.99064 1.81912,0.97356 6.07271,4.98033 9.45242,8.90394 5.39672,6.26521 6.0221,7.68913 5.13611,11.69447 -1.17374,5.30621 -1.14879,17.09948 0.0587,27.74128 0.75727,6.67402 0.4646,7.84891 -2.75791,11.07142 -1.98279,1.9828 -5.17485,3.60509 -7.09345,3.60509 -2.17647,0 -5.08725,1.82102 -7.73979,4.84209 -4.07988,4.64673 -4.34278,4.7354 -6.51574,2.19757 l 0,0 z"
         style="fill:#ffffff;fill-opacity:1;stroke:#000000;stroke-opacity:1"
         inkscape:connector-curvature="0" />
    </a>
    <a
       style="fill:#ffffff;fill-opacity:1;display:inline"
       target="_blank"
       id="a3689"
       transform="matrix(1.1478389,0,0,1.1478389,-434.24061,-622.05032)">
      <path
         onmouseout="setAttribute('fill-opacity','1.0')"
         onmouseover="setAttribute('fill-opacity','0.5')"
         id="path3161"
         d="m 449.11465,751.12041 c 0.53594,-2.94643 2.85544,-13.07143 5.15444,-22.5 2.29901,-9.42857 4.18206,-18.23591 4.18456,-19.57187 0.002,-1.33596 0.9917,-2.98145 2.19823,-3.65666 1.20652,-0.67521 2.69626,-3.11787 3.31052,-5.42813 1.07608,-4.0472 1.48351,-4.22655 11.16471,-4.91477 5.52633,-0.39285 11.06693,-1.56246 12.31244,-2.59913 4.28777,-3.56879 11.01864,2.63834 11.01864,10.16126 0,1.90534 -1.84686,6.92974 -4.10413,11.16535 -2.25728,4.2356 -4.56866,10.46209 -5.1364,13.83664 -1.22122,7.25862 -6.57385,17.3162 -12.22115,22.96349 -3.24868,3.24869 -5.79014,4.22608 -12.92905,4.97224 -16.14123,1.6871 -16.06907,1.70846 -14.95281,-4.42842 z"
         style="fill:#ffffff;fill-opacity:1;stroke:#000000;stroke-opacity:1"
         inkscape:connector-curvature="0" />
    </a>
  </g>
  <g
     inkscape:label="Layer 1"
     inkscape:groupmode="layer"
     id="layer1"
     transform="translate(-96.85975,-511.21322)"
     sodipodi:insensitive="true"
     style="display:inline;opacity:0">
    <path
       d="m 216.4768,1003.4604 c -6.5206,-0.5873 -8.5863,-1.6203 -8.5863,-4.29368 0,-1.9362 -0.9887,-4.5091 -2.1972,-5.7175 -1.5826,-1.5827 -0.17,-3.8146 5.0507,-7.9802 5.916,-4.7204 7.2479,-7.1264 7.248,-13.09324 0,-7.0699 -0.2815,-7.3479 -8.5656,-8.4591 -4.9297,-0.6612 -9.9087,-2.8074 -11.7296,-5.05609 -1.7401,-2.14896 -4.9314,-4.49815 -7.0917,-5.22041 -2.1603,-0.72225 -6.2007,-4.50558 -8.9786,-8.40739 -6.2553,-8.78611 -18.8331,-21.87403 -29.9904,-31.20683 -4.6494,-3.88909 -9.7399,-9.98313 -11.3122,-13.54233 -2.0096,-4.54908 -4.8065,-6.97595 -9.416,-8.17039 -11.3733,-2.94714 -16.6079,-13.98817 -12.9686,-27.3539 1.368,-5.02394 0.3112,-6.81348 -9.8163,-16.62249 -13.693001,-13.26241 -14.576001,-18.51722 -4.4143,-26.26798 13.5439,-10.33039 17.8204,-18.13824 18.0824,-33.01419 0.2093,-11.87873 0.7605,-13.64953 4.8005,-15.42186 2.5103,-1.10123 5.0336,-3.48145 5.6074,-5.28938 0.5739,-1.80795 2.8384,-4.91167 5.0324,-6.89718 2.7773,-2.5134 4.0602,-6.43007 4.2234,-12.89337 0.1289,-5.10581 0.6489,-7.69871 1.1555,-5.76195 0.5911,2.25933 5.0325,4.69697 12.3926,6.80156 6.3092,1.80411 13.0434,4.66165 14.9647,6.35008 4.1772,3.67074 3.5848,4.95519 10.4841,-22.73392 2.7686,-11.11168 6.4385,-24.18119 8.1551,-29.04336 4.788,-13.56105 3.9689,-17.20547 -6.7659,-30.10467 -11.4605,-13.77114 -18.3971,-27.0587 -18.3971,-35.24074 0,-4.04371 -1.2934,-6.225 -4.3648,-7.36119 -3.7357,-1.38191 -3.8813,-1.80019 -1.0102,-2.90195 1.8451,-0.70801 3.3547,-3.13411 3.3547,-5.39131 0,-2.25721 1.3121,-4.10402 2.9159,-4.10402 3.8702,0 9.1906,-7.79057 7.7983,-11.41886 -0.6065,-1.58057 0.5155,-4.66188 2.4933,-6.84734 2.8714,-3.17289 3.1623,-4.92538 1.4438,-8.6971 -1.1837,-2.59794 -1.4498,-5.86002 -0.5913,-7.24907 2.6563,-4.29802 10.045,2.00108 12.3479,10.52704 1.6385,6.06606 3.5943,8.26357 9.5447,10.72431 6.5468,2.70736 10.7396,7.24095 22.2632,24.0727 0.7607,1.11116 3.4287,3.7522 5.9289,5.86896 4.343,3.67705 4.7206,3.69031 8.4697,0.29741 3.8736,-3.50554 3.8558,-3.68506 -1.3844,-13.95018 -9.9854,-19.56049 -10.6209,-21.13125 -10.6209,-26.25254 0,-2.82075 -1.7064,-8.1353 -3.792,-11.81011 -2.0856,-3.67481 -4.8607,-11.13721 -6.1669,-16.58311 -1.3061,-5.4459 -3.7142,-12.49171 -5.3512,-15.65736 -2.7576,-5.33265 -3.8454,-5.75573 -14.799,-5.75573 -7.0494,0 -12.6263,-1.01959 -13.8134,-2.52539 -1.1691,-1.48303 -1.4797,-8.7303 -0.7524,-17.5586 l 1.2384,-15.03323 20.5202,22.1043 c 31.755,34.20619 60.4302,68.44582 73.321,87.54893 6.4534,9.56333 18.6362,25.11553 27.073,34.56046 l 15.3395,17.17259 0.058,13.49275 c 0.041,9.51534 0.995,14.42934 3.2356,16.66997 3.4877,3.48764 3.9083,2.19222 -8.064,24.8333 l -5.5783,10.54931 4.37,18.61369 4.37,18.6137 -3.6066,41.37205 -3.6066,41.37205 -14.2515,6.5846 c -18.3987,8.50074 -24.5829,10.00675 -28.3279,6.89864 -4.0801,-3.3862 -11.4644,-1.15863 -18.7643,5.66051 -4.933,4.60809 -6.3866,8.00327 -7.5774,17.69837 -2.0105,16.36761 -4.0951,21.12296 -12.1814,27.78841 -8.497,7.00395 -8.6403,9.46061 -0.8863,15.19336 11.535,8.52826 12.8658,12.58662 13.4358,40.97461 l 0.5226,26.02488 -6.4674,-0.353 c -3.5571,-0.1941 -10.3313,-0.7009 -15.0537,-1.1263 z"
       id="regionpath"
       style="fill:#999999;fill-opacity:1;stroke:#999999;stroke-width:4;stroke-miterlimit:4;stroke-opacity:1;stroke-dasharray:none"
       inkscape:connector-curvature="0" />
  </g>
</svg>
